<?xml version="1.0" encoding="utf-8"?>
<!-- Generator: Adobe Illustrator 27.5.0, SVG Export Plug-In . SVG Version: 6.00 Build 0)  -->
<svg version="1.1" xmlns="http://www.w3.org/2000/svg" xmlns:xlink="http://www.w3.org/1999/xlink" x="0px" y="0px"
	 viewBox="0 0 3710 3710" style="enable-background:new 0 0 3710 3710;" xml:space="preserve">
<g id="Background">
	<g>
		<g>
			<rect style="fill:#FFFFFF;" width="3710" height="3710"/>
		</g>
	</g>
</g>
<g id="Illustration">
	<g>
		<linearGradient id="SVGID_1_" gradientUnits="userSpaceOnUse" x1="3460.9675" y1="3264.6589" x2="1403.5161" y2="1464.3901">
			<stop  offset="0" style="stop-color:#DAE3FE"/>
			<stop  offset="1" style="stop-color:#E9EFFD"/>
		</linearGradient>
		<path style="fill:url(#SVGID_1_);" d="M3111.308,2329.699c-265.906,626.101-974.217,976.846-1588.465,882.234
			c-99.951-15.396-373.968-61.256-616.573-277.609c-467.03-416.496-566.908-1241.212-190.169-1822.409
			c274.2-423.009,765.731-662.799,1232.782-650.805c100.603,2.583,486.155,18.507,824.988,297.901
			c49.768,41.038,159.536,138.554,258.464,293.258C3264.635,1415.543,3284.602,1921.661,3111.308,2329.699z"/>
		<g>
			<g>
				<g style="opacity:0.3;">
					<path style="fill:#91B3FA;" d="M1234.506,831.362c-5.372,1.04-10.569-2.474-11.607-7.845
						c-2.019-10.435-4.519-20.938-7.435-31.217c-1.475-5.201,1.493-10.61,6.642-12.177c0.061-0.019,0.122-0.037,0.185-0.056
						c5.263-1.493,10.739,1.565,12.232,6.829c3.068,10.819,5.703,21.876,7.826,32.862c0.973,5.022-2.04,9.894-6.83,11.352
						C1235.19,831.211,1234.852,831.297,1234.506,831.362z M1197.842,743.241c-4.287-9.781-9.033-19.471-14.112-28.809
						c-2.612-4.802-0.837-10.819,3.968-13.434c4.833-2.607,10.822-0.834,13.435,3.972c5.343,9.824,10.34,20.024,14.853,30.315
						c2.196,5.01-0.087,10.854-5.097,13.049c-0.364,0.159-0.733,0.296-1.103,0.408
						C1205.05,750.184,1199.878,747.887,1197.842,743.241z M1155.714,670.505c-6.339-8.558-13.128-16.943-20.182-24.928
						c-3.621-4.099-3.234-10.36,0.865-13.982c4.1-3.614,10.357-3.232,13.982,0.866c7.428,8.408,14.579,17.241,21.253,26.252
						c3.256,4.396,2.331,10.599-2.063,13.857c-0.937,0.694-1.957,1.198-3.012,1.519
						C1162.663,675.274,1158.275,673.964,1155.714,670.505z M1098.376,609.019c-8.102-6.934-16.599-13.593-25.255-19.801
						c-4.445-3.189-5.465-9.378-2.277-13.823c3.192-4.442,9.378-5.458,13.823-2.277c9.113,6.537,18.058,13.55,26.587,20.843
						c4.156,3.556,4.644,9.81,1.087,13.966c-1.272,1.487-2.89,2.505-4.633,3.036C1104.578,611.916,1101.047,611.3,1098.376,609.019z
						 M1028.77,561.838c-9.417-4.948-19.179-9.565-29.016-13.714c-5.041-2.13-7.401-7.94-5.275-12.979
						c2.128-5.044,7.939-7.403,12.978-5.272c10.348,4.366,20.621,9.223,30.529,14.43c4.842,2.543,6.706,8.532,4.159,13.375
						c-1.282,2.44-3.438,4.124-5.884,4.869C1033.856,563.279,1031.172,563.101,1028.77,561.838z M950.459,531.235
						c-10.293-2.748-20.83-5.087-31.323-6.953c-5.385-0.958-8.977-6.102-8.019-11.485c0.957-5.387,6.097-8.978,11.486-8.021
						c11.042,1.962,22.135,4.427,32.967,7.318c5.285,1.413,8.425,6.839,7.014,12.126c-0.917,3.433-3.529,5.96-6.696,6.923
						C954.181,531.664,952.313,531.73,950.459,531.235z M591.453,611.32c-3.615-4.105-3.219-10.365,0.888-13.981
						c8.412-7.405,17.262-14.543,26.302-21.213c4.403-3.249,10.604-2.313,13.851,2.09c3.248,4.399,2.312,10.601-2.089,13.849
						c-8.584,6.333-16.986,13.112-24.973,20.145c-1.096,0.965-2.343,1.643-3.655,2.042
						C598.175,615.349,594.102,614.332,591.453,611.32z M867.364,518.759c-10.64-0.39-21.427-0.323-32.061,0.203
						c-5.465,0.268-10.114-3.943-10.383-9.407c-0.27-5.467,3.946-10.086,9.407-10.381c11.199-0.552,22.558-0.624,33.763-0.212
						c5.466,0.201,9.736,4.794,9.535,10.263c-0.159,4.336-3.083,7.919-7.014,9.115C869.588,518.653,868.494,518.799,867.364,518.759
						z M660.97,560.131c-2.604-4.809-0.814-10.822,3.997-13.427c9.855-5.332,20.071-10.31,30.361-14.8
						c5.009-2.212,10.851,0.107,13.04,5.119c2.186,5.013-0.106,10.851-5.12,13.04c-9.78,4.266-19.489,8.996-28.853,14.066
						c-0.597,0.323-1.214,0.576-1.84,0.766C668.143,566.239,663.249,564.344,660.97,560.131z M783.579,525.166
						c-10.453,2-20.957,4.476-31.222,7.366c-5.267,1.485-10.736-1.582-12.219-6.85c-1.462-5.197,1.506-10.594,6.648-12.158
						c0.067-0.02,0.135-0.041,0.203-0.058c10.806-3.046,21.865-5.655,32.865-7.761c5.375-1.025,10.563,2.496,11.592,7.87
						c0.961,5.018-2.052,9.878-6.834,11.333C784.276,525.01,783.93,525.096,783.579,525.166z"/>
					<path style="fill:#91B3FA;" d="M553.946,664.751c1.866-0.568,3.585-1.689,4.885-3.339c3.161-4.011,6.461-8.021,9.803-11.925
						c3.559-4.153,3.077-10.408-1.077-13.965c-4.153-3.561-10.413-3.084-13.967,1.08c-3.518,4.104-6.986,8.322-10.314,12.542
						c-3.387,4.294-2.651,10.526,1.643,13.91C547.566,665.144,550.948,665.664,553.946,664.751z"/>
				</g>
				<g style="opacity:0.3;">
					<path style="fill:#91B3FA;" d="M474.396,956.078c4.574-1.392,7.59-5.933,6.919-10.821c-0.696-5.058-1.297-10.218-1.786-15.331
						c-0.521-5.447-5.358-9.439-10.803-8.919c-5.468,0.524-9.439,5.36-8.919,10.803c0.516,5.383,1.148,10.817,1.879,16.143
						c0.745,5.419,5.742,9.209,11.162,8.465C473.382,956.346,473.899,956.229,474.396,956.078z"/>
					<path style="fill:#91B3FA;" d="M949.784,1278.268c-5.305,1.335-10.688-1.884-12.023-7.193
						c-1.333-5.305,1.884-10.676,7.192-12.02c10.101-2.54,20.249-5.551,30.283-8.977c5.146-1.776,10.807,0.999,12.575,6.175
						c1.768,5.177-0.997,10.807-6.173,12.576c-4.347,1.484-8.702,2.891-13.062,4.218
						C962.354,1274.94,956.032,1276.698,949.784,1278.268z M1018.128,1243.545c-2.45-4.888-0.474-10.84,4.416-13.291
						c9.388-4.709,18.679-9.862,27.614-15.323c4.653-2.864,10.764-1.383,13.618,3.285c2.852,4.665,1.38,10.763-3.287,13.615
						c-9.406,5.75-19.187,11.177-29.067,16.129c-0.512,0.257-1.037,0.466-1.567,0.627
						C1025.323,1249.966,1020.324,1247.924,1018.128,1243.545z M896.658,1287.818c-10.955,1.202-22.112,1.952-33.161,2.225
						c-5.469,0.135-10.012-4.189-10.149-9.66c-0.135-5.468,4.19-10.003,9.659-10.147c10.494-0.257,21.086-0.969,31.488-2.112
						c5.438-0.595,10.331,3.327,10.929,8.767c0.527,4.81-2.485,9.193-6.952,10.552
						C897.891,1287.621,897.284,1287.749,896.658,1287.818z M1090.581,1199.187c-3.466-4.231-2.846-10.475,1.388-13.939
						c8.114-6.643,16.039-13.714,23.557-21.013c3.927-3.816,10.194-3.721,14.006,0.207c3.811,3.924,3.718,10.193-0.206,14.004
						c-7.918,7.687-16.264,15.133-24.807,22.129c-1.033,0.844-2.183,1.449-3.387,1.815
						C1097.408,1203.525,1093.201,1202.386,1090.581,1199.187z M809.612,1287.666c-10.944-1.236-21.988-2.959-32.828-5.12
						c-5.365-1.069-8.846-6.282-7.778-11.646c1.068-5.369,6.285-8.849,11.65-7.78c10.297,2.051,20.787,3.688,31.18,4.861
						c5.437,0.615,9.346,5.52,8.731,10.957c-0.458,4.051-3.298,7.252-6.962,8.367
						C812.351,1287.686,810.997,1287.823,809.612,1287.666z M724.71,1268.428c-10.434-3.607-20.838-7.697-30.922-12.155
						c-5.003-2.215-7.266-8.062-5.054-13.066c2.216-5.01,8.065-7.271,13.065-5.052c9.582,4.235,19.468,8.122,29.383,11.552
						c5.171,1.787,7.912,7.428,6.125,12.599c-1.079,3.115-3.555,5.349-6.485,6.24C728.89,1269.133,726.762,1269.138,724.71,1268.428
						z M646.014,1231.143c-9.406-5.797-18.672-12.057-27.539-18.6c-4.403-3.251-5.335-9.45-2.088-13.852
						c3.253-4.407,9.452-5.335,13.852-2.088c8.425,6.221,17.228,12.164,26.169,17.674c4.657,2.87,6.106,8.973,3.235,13.628
						c-1.318,2.14-3.316,3.601-5.545,4.28C651.474,1232.984,648.532,1232.694,646.014,1231.143z M577.326,1177.58
						c-7.91-7.712-15.582-15.852-22.802-24.195c-3.58-4.136-3.13-10.392,1.008-13.973c4.129-3.574,10.391-3.126,13.971,1.01
						c6.855,7.92,14.139,15.648,21.655,22.975c3.917,3.819,3.996,10.088,0.177,14.004c-1.207,1.237-2.656,2.09-4.2,2.56
						C583.791,1180.98,580.009,1180.193,577.326,1177.58z M522.059,1110.197c-6.002-9.243-11.686-18.866-16.898-28.604
						c-2.582-4.824-0.765-10.828,4.059-13.409c4.809-2.572,10.825-0.766,13.407,4.058c4.951,9.251,10.351,18.391,16.05,27.172
						c2.979,4.586,1.673,10.722-2.915,13.699c-0.799,0.519-1.645,0.909-2.513,1.173
						C529.133,1115.539,524.519,1113.987,522.059,1110.197z M482.977,1032.405c-2.834-7.611-5.468-15.404-7.828-23.158
						c-0.855-2.81-1.675-5.617-2.465-8.431c-1.477-5.265,1.499-10.818,6.86-12.211c5.266-1.481,10.735,1.591,12.215,6.859
						c0.75,2.672,1.53,5.346,2.342,8.015c2.244,7.374,4.746,14.778,7.44,22.015c1.909,5.125-0.701,10.829-5.827,12.737
						c-0.193,0.071-0.387,0.138-0.581,0.197C490.164,1039.941,484.812,1037.339,482.977,1032.405z"/>
					<path style="fill:#91B3FA;" d="M1160.629,1141.443c1.884-0.573,3.615-1.711,4.918-3.377c3.3-4.228,6.572-8.604,9.727-13.01
						c3.186-4.448,2.163-10.636-2.284-13.82c-4.449-3.184-10.633-2.168-13.82,2.285c-2.997,4.184-6.106,8.342-9.238,12.356
						c-3.366,4.309-2.6,10.534,1.712,13.901C1154.287,1141.84,1157.65,1142.349,1160.629,1141.443z"/>
				</g>
				<g>
					<path style="fill:#91B3FA;" d="M1140.03,972.883c0.749-1.828,0.256-3.929-1.228-5.233l-42.321-37.201
						c4.165-25.982,4.217-52.815-0.264-79.521l42.02-37.485c1.474-1.315,1.951-3.42,1.188-5.242l-26.093-62.346
						c-0.762-1.823-2.597-2.961-4.567-2.833l-56.194,3.618c-15.876-21.937-35.025-40.736-56.455-56.006l3.209-56.254
						c0.112-1.972-1.039-3.798-2.866-4.547l-62.536-25.636c-1.827-0.749-3.93-0.257-5.233,1.228l-37.2,42.321
						c-25.982-4.166-52.815-4.219-79.522,0.264l-37.485-42.02c-1.315-1.474-3.42-1.952-5.242-1.189l-62.348,26.092
						c-1.822,0.763-2.959,2.598-2.832,4.568l3.619,56.195c-21.938,15.876-40.736,35.025-56.005,56.456l-56.255-3.209
						c-1.972-0.112-3.798,1.038-4.547,2.866l-25.636,62.536c-0.749,1.827-0.256,3.929,1.227,5.232l42.322,37.201
						c-4.167,25.982-4.218,52.815,0.264,79.521l-42.02,37.485c-1.474,1.314-1.952,3.42-1.189,5.242l26.093,62.348
						c0.763,1.822,2.597,2.959,4.568,2.832l56.194-3.618c15.876,21.937,35.026,40.736,56.455,56.006l-3.209,56.254
						c-0.113,1.971,1.038,3.797,2.866,4.547l62.536,25.635c1.827,0.749,3.929,0.256,5.232-1.227l37.201-42.321
						c25.982,4.166,52.815,4.218,79.522-0.263l37.485,42.02c1.315,1.472,3.419,1.951,5.242,1.188l62.347-26.093
						c1.822-0.763,2.96-2.597,2.833-4.568l-3.618-56.193c21.938-15.876,40.735-35.026,56.005-56.455l56.255,3.209
						c1.972,0.113,3.798-1.039,4.547-2.866L1140.03,972.883z"/>
					<g>
						<path style="fill:#BDD0FB;" d="M862.724,958.776c-37.045,5.563-71.709-20.046-77.274-57.094
							c-2.697-17.946,1.758-35.867,12.542-50.461c10.78-14.593,26.601-24.119,44.55-26.811
							c37.045-5.563,71.709,20.046,77.274,57.094c5.061,33.703-15.678,65.434-47.361,75.075
							C869.315,957.535,866.064,958.274,862.724,958.776z M810.739,860.64c-8.268,11.191-11.683,24.93-9.616,38.692
							c4.266,28.4,30.845,48.04,59.247,43.773c28.412-4.258,48.04-30.846,43.775-59.249c-4.267-28.4-30.846-48.04-59.247-43.773
							c-2.576,0.387-5.089,0.958-7.536,1.703C826.735,845.018,817.46,851.546,810.739,860.64z"/>
					</g>
					<path style="fill:#BDD0FB;" d="M899.694,1050.857c5.441-1.656,10.831-3.595,16.15-5.82l0,0
						c1.674-0.699,3.337-1.428,4.988-2.182c8.14-3.719,15.972-8.08,23.374-13.014c0.101-0.067,0.202-0.134,0.303-0.201
						c0.285-0.192,0.571-0.384,0.855-0.58c0.555-0.375,1.106-0.757,1.656-1.139c1.445-1.006,2.013-2.801,1.529-4.4
						c-0.118-0.389-0.3-0.766-0.544-1.117c-1.25-1.795-3.72-2.229-5.515-0.983c-9.237,6.439-19.231,11.923-29.703,16.303
						c-52.011,21.777-109.168,13.739-152.369-16.26c-24.031-16.683-43.743-40.164-55.849-69.094
						c-2.124-5.073-3.976-10.216-5.554-15.406c-10.625-34.93-8.929-72.141,5.108-106.378c16.121-39.328,46.593-70.024,85.799-86.432
						c80.977-33.88,174.347,4.419,208.218,85.354c2.089,4.99,3.917,10.068,5.48,15.21c6.776,22.282,8.602,45.798,5.263,68.869
						c-0.086,0.596-0.035,1.18,0.131,1.72c0.432,1.421,1.653,2.542,3.223,2.768c2.168,0.307,4.178-1.182,4.489-3.356
						c3.505-24.221,1.59-48.912-5.524-72.304c-1.64-5.397-3.559-10.726-5.75-15.965c-35.562-84.975-133.644-125.156-218.588-89.608
						c-41.162,17.226-73.148,49.451-90.072,90.737c-14.736,35.942-16.517,75.007-5.364,111.677
						c1.658,5.449,3.602,10.847,5.829,16.171c17.228,41.163,49.452,73.152,90.737,90.076
						C823.942,1060.243,863.018,1062.018,899.694,1050.857z"/>
				</g>
			</g>
			<g>
				<g style="opacity:0.3;">
					<path style="fill:#91B3FA;" d="M1634.895,982.429c2.532-0.77,4.362-3.132,4.333-5.914c-0.051-5.193-0.26-10.457-0.622-15.642
						c-0.236-3.369-3.156-5.909-6.53-5.676c-3.377,0.222-5.911,3.16-5.676,6.53c0.345,4.941,0.545,9.957,0.595,14.914
						c0.031,3.375,2.799,6.086,6.178,6.057C1633.772,982.69,1634.349,982.595,1634.895,982.429z"/>
					<path style="fill:#91B3FA;" d="M1629.503,935.765c-3.316,0.647-6.53-1.51-7.18-4.828c-1.644-8.367-3.735-16.748-6.217-24.905
						c-0.523-1.72-1.069-3.44-1.633-5.161c-1.048-3.209,0.701-6.665,3.912-7.717c3.076-0.873,6.665,0.701,7.72,3.914
						c0.588,1.801,1.158,3.601,1.706,5.401c2.602,8.55,4.795,17.338,6.516,26.114c0.611,3.105-1.249,6.125-4.215,7.028
						C1629.915,935.671,1629.711,935.72,1629.503,935.765z M1603.025,871.986c-4.388-9.362-9.394-18.537-14.882-27.264
						c-1.798-2.863-0.939-6.634,1.923-8.435c2.848-1.785,6.637-0.94,8.436,1.923c5.753,9.147,11.003,18.765,15.602,28.582
						c1.434,3.06,0.116,6.703-2.944,8.14c-0.268,0.125-0.546,0.228-0.823,0.312C1607.473,876.116,1604.333,874.774,1603.025,871.986
						z M1569.995,819.5c-6.537-7.99-13.646-15.65-21.132-22.777c-2.445-2.328-2.54-6.202-0.212-8.647
						c2.338-2.454,6.2-2.549,8.65-0.215c7.851,7.471,15.306,15.513,22.163,23.887c2.139,2.615,1.757,6.472-0.858,8.611
						c-0.639,0.519-1.35,0.892-2.093,1.118C1574.213,822.176,1571.614,821.475,1569.995,819.5z M1525.077,776.733
						c-8.31-6.151-17.081-11.844-26.056-16.907c-2.945-1.664-3.984-5.395-2.321-8.336c1.658-2.934,5.389-3.982,8.333-2.323
						c9.417,5.315,18.608,11.28,27.326,17.732c2.716,2.009,3.286,5.844,1.277,8.56c-0.814,1.091-1.919,1.839-3.131,2.208
						C1528.713,778.212,1526.698,777.933,1525.077,776.733z M1471.08,746.228c-9.552-3.944-19.436-7.331-29.382-10.075
						c-3.254-0.895-5.167-4.266-4.27-7.524c0.897-3.258,4.264-5.176,7.525-4.27c10.423,2.873,20.784,6.427,30.797,10.556
						c3.122,1.292,4.61,4.867,3.321,7.988c-0.728,1.764-2.186,3.007-3.878,3.522C1473.887,746.822,1472.441,746.788,1471.08,746.228
						z M1411.314,729.755c-10.215-1.5-20.616-2.375-30.923-2.599c-3.375-0.072-6.057-2.872-5.982-6.248
						c0.075-3.376,2.862-6.048,6.25-5.986c10.806,0.234,21.721,1.153,32.436,2.726c3.342,0.494,5.654,3.6,5.163,6.94
						c-0.357,2.419-2.083,4.3-4.275,4.967C1413.145,729.81,1412.24,729.892,1411.314,729.755z M1349.361,728.4
						c-10.238,1.049-20.547,2.755-30.641,5.078c-3.293,0.753-6.576-1.302-7.331-4.595c-0.758-3.291,1.306-6.524,4.593-7.337
						c10.583-2.427,21.392-4.218,32.13-5.318c3.362-0.343,6.367,2.103,6.712,5.464c0.303,2.955-1.557,5.638-4.3,6.473
						C1350.151,728.278,1349.763,728.359,1349.361,728.4z M1252.2,751.997c-1.535-3.011-0.338-6.692,2.674-8.227
						c8.334-4.247,17.044-8.109,25.863-11.474c1.338-0.519,2.677-1.014,4.02-1.504c3.126-1.239,6.687,0.488,7.834,3.674
						c1.151,3.178-0.493,6.682-3.67,7.836c-1.261,0.453-2.52,0.923-3.796,1.418c-8.442,3.218-16.75,6.902-24.698,10.951
						c-0.327,0.168-0.664,0.302-1.001,0.404C1256.639,755.923,1253.566,754.679,1252.2,751.997z"/>
				</g>
				<g style="opacity:0.3;">
					<path style="fill:#91B3FA;" d="M1448.344,1233c-10.24,2.972-20.751,5.34-31.24,7.052c-3.333,0.54-6.478-1.72-7.022-5.057
						c-0.544-3.338,1.749-6.452,5.057-7.022c10.003-1.627,20.027-3.89,29.797-6.726c3.244-0.944,6.639,0.927,7.579,4.17
						c0.933,3.219-0.896,6.586-4.091,7.559C1448.399,1232.983,1448.37,1232.992,1448.344,1233z M1470.503,1219
						c-1.323-3.107,0.125-6.701,3.233-8.022c9.351-3.982,18.556-8.569,27.358-13.64c2.915-1.668,6.669-0.681,8.354,2.254
						c1.687,2.928,0.679,6.663-2.248,8.353c-9.225,5.312-18.871,10.121-28.672,14.289c-0.207,0.088-0.412,0.163-0.624,0.228
						C1474.956,1223.359,1471.741,1221.908,1470.503,1219z M1385.215,1243.255c-10.661,0.409-21.436,0.172-32.027-0.708
						c-3.367-0.281-5.872-3.24-5.591-6.604c0.277-3.369,3.226-5.859,6.6-5.594c10.104,0.841,20.38,1.068,30.552,0.682
						c3.377-0.129,6.218,2.504,6.347,5.875c0.108,2.84-1.735,5.299-4.33,6.089
						C1386.274,1243.146,1385.755,1243.235,1385.215,1243.255z M1525.379,1189.061c-2.032-2.698-1.489-6.535,1.209-8.567
						c8.119-6.112,15.941-12.783,23.25-19.834c2.433-2.339,6.307-2.269,8.649,0.153c2.346,2.434,2.278,6.307-0.155,8.653
						c-7.663,7.397-15.869,14.396-24.386,20.804c-0.59,0.442-1.233,0.762-1.898,0.964
						C1529.659,1191.961,1526.967,1191.17,1525.379,1189.061z M1321.501,1237.952c-10.422-2.162-20.821-4.986-30.912-8.391
						c-3.201-1.08-4.92-4.554-3.84-7.755c1.08-3.202,4.549-4.926,7.755-3.84c9.624,3.254,19.541,5.944,29.482,8.002
						c3.307,0.687,5.434,3.923,4.746,7.236c-0.468,2.266-2.142,3.98-4.214,4.611
						C1323.573,1238.101,1322.54,1238.166,1321.501,1237.952z M1260.91,1217.515c-9.62-4.604-19.046-9.836-28.015-15.543
						c-2.849-1.812-3.69-5.59-1.875-8.441c1.809-2.849,5.593-3.694,8.447-1.877c8.553,5.441,17.547,10.429,26.728,14.823
						c3.048,1.458,4.335,5.113,2.877,8.161c-0.771,1.609-2.155,2.729-3.741,3.212
						C1263.918,1218.28,1262.345,1218.202,1260.91,1217.515z M1206.951,1183.157c-8.245-6.777-16.144-14.122-23.477-21.82
						c-2.332-2.45-2.235-6.32,0.212-8.651c2.445-2.331,6.319-2.229,8.648,0.21c6.991,7.346,14.523,14.347,22.387,20.803
						c2.611,2.146,2.988,6.003,0.84,8.612c-0.794,0.972-1.824,1.629-2.939,1.968
						C1210.731,1184.854,1208.595,1184.505,1206.951,1183.157z"/>
					<path style="fill:#91B3FA;" d="M1577.22,1147.631c1.129-0.344,2.17-1.016,2.969-2.003c3.296-4.069,6.484-8.255,9.482-12.44
						c1.965-2.747,1.335-6.57-1.411-8.539c-2.747-1.955-6.566-1.331-8.539,1.412c-2.857,3.992-5.901,7.985-9.043,11.87
						c-2.126,2.626-1.719,6.48,0.907,8.604C1573.224,1147.86,1575.342,1148.203,1577.22,1147.631z"/>
				</g>
				<g>
					<path style="fill:#91B3FA;" d="M1566.5,1031.655c0.5-1.224,0.171-2.629-0.821-3.502l-28.319-24.893
						c2.787-17.386,2.822-35.341-0.177-53.212l28.118-25.083c0.986-0.88,1.305-2.288,0.795-3.508l-17.46-41.719
						c-0.509-1.22-1.738-1.981-3.056-1.896l-37.603,2.422c-10.624-14.68-23.437-27.259-37.777-37.477l2.147-37.643
						c0.075-1.32-0.695-2.541-1.918-3.043l-41.846-17.154c-1.223-0.501-2.629-0.172-3.502,0.821l-24.892,28.319
						c-17.386-2.788-35.342-2.823-53.213,0.177l-25.083-28.118c-0.88-0.986-2.288-1.306-3.507-0.795l-41.72,17.46
						c-1.22,0.51-1.98,1.738-1.895,3.057l2.421,37.603c-14.68,10.624-27.259,23.437-37.476,37.778l-37.643-2.148
						c-1.319-0.075-2.542,0.695-3.042,1.918l-17.155,41.847c-0.501,1.222-0.171,2.629,0.821,3.501l28.32,24.894
						c-2.788,17.386-2.823,35.341,0.176,53.212l-28.118,25.083c-0.987,0.879-1.306,2.288-0.796,3.507l17.46,41.72
						c0.51,1.219,1.738,1.98,3.057,1.895l37.602-2.422c10.624,14.68,23.438,27.259,37.778,37.476l-2.147,37.643
						c-0.076,1.319,0.695,2.541,1.918,3.043l41.846,17.154c1.223,0.501,2.629,0.171,3.502-0.821l24.893-28.319
						c17.386,2.788,35.341,2.822,53.212-0.177l25.083,28.118c0.88,0.986,2.288,1.305,3.508,0.795l41.72-17.461
						c1.219-0.51,1.98-1.738,1.895-3.057l-2.421-37.602c14.68-10.624,27.258-23.438,37.476-37.777l37.643,2.147
						c1.319,0.076,2.541-0.695,3.042-1.918L1566.5,1031.655z"/>
					<g>
						<path style="fill:#BDD0FB;" d="M1381.064,1023.021c-12.227,1.841-24.435-1.195-34.377-8.542
							c-9.941-7.342-16.427-18.12-18.262-30.345c-3.791-25.231,13.63-48.799,38.891-52.639
							c25.237-3.783,48.846,13.662,52.632,38.889c1.837,12.224-1.196,24.432-8.54,34.374c-5.971,8.081-14.212,13.879-23.653,16.753
							C1385.585,1022.17,1383.347,1022.676,1381.064,1023.021z M1340.523,982.313c1.351,8.995,6.121,16.922,13.436,22.328
							c7.311,5.401,16.293,7.632,25.284,6.282l0,0c8.99-1.362,16.918-6.123,22.324-13.438c5.404-7.308,7.631-16.293,6.283-25.281
							c-2.788-18.561-20.154-31.393-38.716-28.611c-1.675,0.254-3.301,0.624-4.876,1.103
							C1348.382,949.527,1337.987,965.43,1340.523,982.313z"/>
					</g>
					<path style="fill:#BDD0FB;" d="M1406.798,1087.107c3.704-1.127,7.379-2.452,11.025-3.973
						c7.238-3.027,14.176-6.793,20.636-11.207c0.289-0.2,0.578-0.401,0.867-0.601c2.232-1.553,3.109-4.324,2.36-6.795
						c-0.183-0.6-0.463-1.183-0.84-1.724c-1.931-2.772-5.742-3.436-8.515-1.518c-5.992,4.178-12.462,7.726-19.227,10.554
						l-0.003,0.001c-0.371,0.156-0.746,0.308-1.116,0.458c-16.072,6.546-33.166,8.838-49.966,6.956
						c-9.119-1.022-18.156-3.281-26.897-6.772c-0.071-0.028-0.142-0.057-0.213-0.085c-0.218-0.09-0.434-0.174-0.649-0.265
						c-25.458-10.439-45.331-30.164-55.953-55.546c-1.377-3.284-2.574-6.611-3.597-9.972c-6.878-22.612-5.778-46.703,3.307-68.871
						c10.438-25.459,30.166-45.326,55.545-55.947c25.369-10.605,53.382-10.724,78.842-0.292
						c25.458,10.438,45.331,30.163,55.953,55.546c1.354,3.229,2.536,6.517,3.548,9.843c4.387,14.428,5.569,29.649,3.407,44.583
						c-0.132,0.921-0.055,1.822,0.202,2.655c0.668,2.195,2.553,3.926,4.976,4.275c3.345,0.475,6.447-1.831,6.932-5.182
						c2.418-16.71,1.097-33.744-3.807-49.881c-1.134-3.727-2.455-7.402-3.967-11.015c-11.887-28.401-34.118-50.469-62.605-62.146
						c-28.482-11.673-59.799-11.585-88.202,0.325c-28.399,11.883-50.468,34.112-62.141,62.6
						c-10.168,24.796-11.396,51.748-3.701,77.047c1.143,3.755,2.483,7.482,4.019,11.154
						C1290.029,1076.291,1350.962,1104.099,1406.798,1087.107z"/>
				</g>
			</g>
		</g>
		<g>
			
				<linearGradient id="SVGID_00000090272061560333903020000015101913191338467730_" gradientUnits="userSpaceOnUse" x1="1927.6449" y1="2772.3186" x2="2541.343" y2="2178.7407">
				<stop  offset="0" style="stop-color:#09005D"/>
				<stop  offset="1" style="stop-color:#1A0F91"/>
			</linearGradient>
			
				<rect x="1735.651" y="2713.912" style="fill:url(#SVGID_00000090272061560333903020000015101913191338467730_);" width="248.174" height="248.174"/>
			<g>
				
					<linearGradient id="SVGID_00000135690491010682833930000012467901181150261120_" gradientUnits="userSpaceOnUse" x1="2566.8735" y1="353.4021" x2="2370.6921" y2="786.0083">
					<stop  offset="0" style="stop-color:#09005D"/>
					<stop  offset="1" style="stop-color:#1A0F91"/>
				</linearGradient>
				<path style="fill:url(#SVGID_00000135690491010682833930000012467901181150261120_);" d="M501.104,2714.793
					c0,26.723,21.886,48.588,48.635,48.588h2629.979c26.749,0,48.635-21.865,48.635-48.588l21.884-1511.377
					c0-26.723-31.484-78.894-89.187-74.974l-2570.305-66.506c-33.563-0.869-66.014,12.05-89.781,35.74
					c-23.766,23.689-36.771,56.079-35.977,89.611L501.104,2714.793z"/>
				<path style="fill:#7D97F4;" d="M549.12,2640.385c0,24.884,20.705,45.244,46.012,45.244h2521.163
					c25.307,0,46.012-20.36,46.012-45.244l20.651-1349.144c-2.432-81.189-74.819-110.368-118.699-108.645l-2463.477-64.988
					c-23.58-0.622-46.384,8.304-63.077,24.691c-16.694,16.387-25.811,38.795-25.22,61.982L549.12,2640.385z"/>
				<g>
					<path style="fill:#FFFFFF;" d="M3135.061,2015.854c-0.031,0-0.062,0-0.062,0c-3.476-0.051-6.226-2.888-6.174-6.33
						l1.633-111.269c0.05-3.442,2.876-5.944,6.323-6.143c3.446,0.05,6.197,2.888,6.143,6.33l-1.634,111.269
						C3141.241,2013.121,3138.46,2015.854,3135.061,2015.854z"/>
					<path style="fill:#FFFFFF;" d="M3139.066,1743.183c-0.031,0-0.061,0-0.093,0c-3.445-0.05-6.196-2.889-6.143-6.33l6.259-426.168
						c-0.118-25.467-7.855-45.801-22.997-60.308c-28.215-27.036-72.98-25.636-74.894-25.58l-787.325-21.111
						c-3.441-0.088-6.155-2.957-6.065-6.398c0.091-3.386,2.863-6.069,6.231-6.069c0.056,0,0.111,0,0.17,0.006l786.893,21.111
						c4.883-0.23,52.168-1.096,83.617,29.034c17.675,16.941,26.706,40.28,26.84,69.376l-6.261,426.293
						C3145.247,1740.451,3142.464,1743.183,3139.066,1743.183z"/>
				</g>
			</g>
			
				<linearGradient id="SVGID_00000112603142348968041300000004476663776439232913_" gradientUnits="userSpaceOnUse" x1="2130.0117" y1="2556.8196" x2="1855.0073" y2="2963.7363">
				<stop  offset="0" style="stop-color:#09005D"/>
				<stop  offset="1" style="stop-color:#1A0F91"/>
			</linearGradient>
			<path style="fill:url(#SVGID_00000112603142348968041300000004476663776439232913_);" d="M2444.525,2921.842H1276.919
				c-23.019,0-41.68,16.999-41.68,40.018c0,19.565,15.861,33.764,35.427,33.764h1173.86c19.566,0,35.648-17.431,35.648-36.997
				v-6.253C2480.174,2932.809,2464.091,2921.842,2444.525,2921.842z"/>
		</g>
		<g>
			
				<linearGradient id="SVGID_00000175307764743091227000000005508944419770945686_" gradientUnits="userSpaceOnUse" x1="2168.3826" y1="2242.636" x2="2354.0774" y2="1795.2814">
				<stop  offset="0" style="stop-color:#CB236D"/>
				<stop  offset="1" style="stop-color:#4C246D"/>
			</linearGradient>
			
				<circle style="fill:url(#SVGID_00000175307764743091227000000005508944419770945686_);" cx="2247.805" cy="2051.301" r="156.299"/>
			<path style="fill:#FFFFFF;" d="M2274.982,1954.097c-4.338-1.541-8.888,1.713-8.888,6.317v9.43v18.49v91.923
				c-9.084-7.474-21.768-12.133-35.829-12.133c-27.614,0-49.999,17.908-49.999,39.999c0,22.091,22.385,39.999,49.999,39.999
				c27.614,0,49.999-17.908,49.999-39.999c0-0.192-0.033-0.378-0.036-0.57h0.036v-119.139c19.806,3.001,33.263,18.041,41.14,30.325
				c3.307,5.158,11.24,2.55,10.915-3.569C2330.35,1978.041,2292.583,1960.351,2274.982,1954.097z"/>
		</g>
		<path style="fill:#91B3FA;" d="M2964.977,2595.999L741.128,2541.86c-38.209-0.93-68.698-32.171-68.698-70.391V1369.65
			c0-38.888,31.525-70.412,70.412-70.412h2192.286c38.139,0,69.345,30.366,70.386,68.49l31.562,1155.958
			C3038.177,2563.986,3005.28,2596.98,2964.977,2595.999z"/>
		<g>
			
				<linearGradient id="SVGID_00000016778379904463938260000005921083589757001373_" gradientUnits="userSpaceOnUse" x1="2080.2258" y1="2034.9213" x2="2460.145" y2="2034.9213">
				<stop  offset="0" style="stop-color:#E1473D"/>
				<stop  offset="1" style="stop-color:#E9605A"/>
			</linearGradient>
			
				<circle style="fill:url(#SVGID_00000016778379904463938260000005921083589757001373_);" cx="2270.186" cy="2034.921" r="189.945"/>
			<g>
				<path style="fill:#FFFFFF;" d="M2414.777,2091.454l-11.266-71.995c-0.008-6.325-1.011-12.411-2.837-18.132l-0.495-3.164
					l-0.478,0.324c-8.477-22.745-30.327-39.158-56.026-39.158h-129.937c-33.048,0-59.839,26.974-59.839,60.023
					c0,4.399,0.506,8.768,1.407,12.898l-9.251,59.16c-0.731,4.674,0.618,9.506,3.694,13.101c3.076,3.594,7.57,5.735,12.302,5.735
					h18.771c8.842,0,17.46-4.161,24.635-9.327l31.706-24.21h86.506l31.707,24.21c7.176,5.166,15.793,9.327,24.635,9.327h18.771
					c4.731,0,9.226-2.118,12.302-5.713C2414.159,2100.938,2415.509,2096.128,2414.777,2091.454z M2216.017,2056.007
					c-20.459,0-37.044-16.584-37.044-37.043c0-20.459,16.585-37.043,37.044-37.043s37.043,16.584,37.043,37.043
					C2253.061,2039.422,2236.476,2056.007,2216.017,2056.007z M2339.116,2056.007c-20.458,0-37.044-16.584-37.044-37.043
					c0-20.459,16.585-37.043,37.044-37.043c20.459,0,37.043,16.584,37.043,37.043
					C2376.159,2039.422,2359.574,2056.007,2339.116,2056.007z"/>
				<path style="fill:#FFFFFF;" d="M2233.399,2009.634h-11.461v-9.761c0-3.305-2.331-7.007-5.636-7.007h-1.71
					c-3.305,0-6.069,3.702-6.069,7.007v9.761h-11.028c-3.305,0-5.741,4.031-5.741,7.336v1.71c0,3.305,2.436,4.37,5.741,4.37h11.028
					v12.728c0,3.305,2.764,4.041,6.069,4.041h1.71c3.305,0,5.636-0.736,5.636-4.041v-12.728h11.461c3.305,0,5.308-1.064,5.308-4.37
					v-1.71C2238.707,2013.664,2236.704,2009.634,2233.399,2009.634z"/>
				<g>
					<g>
						<path style="fill:#FFFFFF;" d="M2349.379,2000.007c0,3.464-2.808,6.273-6.272,6.273h-0.87c-3.464,0-6.273-2.808-6.273-6.273
							v-0.87c0-3.464,2.808-6.272,6.273-6.272h0.87c3.464,0,6.272,2.808,6.272,6.272V2000.007z"/>
						<path style="fill:#FFFFFF;" d="M2349.379,2040.252c0,3.464-2.808,6.273-6.272,6.273h-0.87c-3.464,0-6.273-2.808-6.273-6.273
							v-0.87c0-3.464,2.808-6.272,6.273-6.272h0.87c3.464,0,6.272,2.808,6.272,6.272V2040.252z"/>
					</g>
					<g>
						<path style="fill:#FFFFFF;" d="M2366.148,2016.776c0,3.464-2.809,6.272-6.273,6.272h-0.87c-3.464,0-6.273-2.808-6.273-6.272
							v-0.87c0-3.464,2.808-6.273,6.273-6.273h0.87c3.464,0,6.273,2.808,6.273,6.273V2016.776z"/>
						<path style="fill:#FFFFFF;" d="M2325.903,2016.776c0,3.464-2.808,6.272-6.272,6.272h-0.87c-3.464,0-6.272-2.808-6.272-6.272
							v-0.87c0-3.464,2.808-6.273,6.272-6.273h0.87c3.464,0,6.272,2.808,6.272,6.273V2016.776z"/>
					</g>
				</g>
			</g>
		</g>
		<g>
			<g>
				
					<linearGradient id="SVGID_00000173144688746991091160000007679452121316887188_" gradientUnits="userSpaceOnUse" x1="-1883.7639" y1="2539.3982" x2="-1757.658" y2="2539.3982" gradientTransform="matrix(-1 0 0 1 1263.6694 0)">
					<stop  offset="0" style="stop-color:#FEBBBA"/>
					<stop  offset="1" style="stop-color:#FF928E"/>
				</linearGradient>
				<path style="fill:url(#SVGID_00000173144688746991091160000007679452121316887188_);" d="M3102.044,2474.405
					c12.937,13.808,31.985,25.741,45.389,33.182c-20.017,24.743-47.104,49.522-82.962,73.775l-10.263,23.03l-32.881-39.409
					C3021.327,2564.982,3080.329,2535.621,3102.044,2474.405z"/>
				
					<linearGradient id="SVGID_00000057840683777647168990000013840694665740531855_" gradientUnits="userSpaceOnUse" x1="-1756.9658" y1="3188.1882" x2="-1662.4056" y2="3188.1882" gradientTransform="matrix(-1 0 0 1 1263.6694 0)">
					<stop  offset="0" style="stop-color:#09005D"/>
					<stop  offset="1" style="stop-color:#1A0F91"/>
				</linearGradient>
				<path style="fill:url(#SVGID_00000057840683777647168990000013840694665740531855_);" d="M2926.076,3221.858
					c-0.011-0.704,0.036-1.418,0.217-2.136c10.65-42.224,63.51-68.523,63.51-68.523l20.947,1.641
					c12.044,37.216,10.496,60.04,8.562,70.207c-0.053,0.285-0.14,0.556-0.216,0.832
					C3001.817,3225.422,2966.253,3226.43,2926.076,3221.858z"/>
				
					<linearGradient id="SVGID_00000073689434390111023630000003945278748825157812_" gradientUnits="userSpaceOnUse" x1="-1520.2395" y1="3076.6345" x2="-1864.2516" y2="3346.7539" gradientTransform="matrix(-1 0 0 1 1263.6694 0)">
					<stop  offset="0" style="stop-color:#4F52FF"/>
					<stop  offset="1" style="stop-color:#4042E2"/>
				</linearGradient>
				<path style="fill:url(#SVGID_00000073689434390111023630000003945278748825157812_);" d="M3019.096,3223.879
					c-0.933,3.394-3.439,6.038-6.647,6.713c-24.58,5.169-63.646,1.009-80.049-1.135c-3.619-0.473-6.264-3.82-6.324-7.598
					C2966.253,3226.43,3001.817,3225.422,3019.096,3223.879z"/>
				
					<linearGradient id="SVGID_00000175305718379505104390000002104188393721444516_" gradientUnits="userSpaceOnUse" x1="-1730.6696" y1="3080.5364" x2="-1748.7321" y2="3238.1736" gradientTransform="matrix(-1 0 0 1 1263.6694 0)">
					<stop  offset="0" style="stop-color:#FEBBBA"/>
					<stop  offset="1" style="stop-color:#FF928E"/>
				</linearGradient>
				<path style="fill:url(#SVGID_00000175305718379505104390000002104188393721444516_);" d="M3019.173,3121.642l-8.871,42.708
					c-0.65,3.129-3.055,5.472-5.968,5.746c-3.565,0.335-8.64,0.531-13.744-0.219c-4.577-0.672-7.764-5.323-6.953-10.314l6.167-37.92
					H3019.173z"/>
				
					<linearGradient id="SVGID_00000105399372889562085700000007150007791875924642_" gradientUnits="userSpaceOnUse" x1="-1459.1285" y1="3154.4639" x2="-1803.1395" y2="3424.5823" gradientTransform="matrix(-1 0 0 1 1263.6694 0)">
					<stop  offset="0" style="stop-color:#4F52FF"/>
					<stop  offset="1" style="stop-color:#4042E2"/>
				</linearGradient>
				<path style="fill:url(#SVGID_00000105399372889562085700000007150007791875924642_);" d="M2835.36,3223.45
					c23.134-0.649,35.1-3.373,41.285-5.901c0.015,2.299,0.002,4.641-0.073,7.066c-0.08,2.591-1.999,4.66-4.36,4.644l-127.019-0.82
					c-4.054-0.026-6.423-4.728-4.666-8.444C2757.182,3221.372,2799.599,3224.45,2835.36,3223.45z"/>
				
					<linearGradient id="SVGID_00000078014357815131842410000008561368121686179236_" gradientUnits="userSpaceOnUse" x1="-1612.976" y1="3190.7034" x2="-1476.8586" y2="3190.7034" gradientTransform="matrix(-1 0 0 1 1263.6694 0)">
					<stop  offset="0" style="stop-color:#09005D"/>
					<stop  offset="1" style="stop-color:#1A0F91"/>
				</linearGradient>
				<path style="fill:url(#SVGID_00000078014357815131842410000008561368121686179236_);" d="M2740.528,3219.996
					c0.153-0.324,0.284-0.653,0.502-0.958c11.218-15.675,39.789-46.886,96.244-60.423l27.083-0.855c0,0,12.06,20.961,12.287,59.789
					c-6.185,2.528-18.151,5.252-41.285,5.901C2799.599,3224.45,2757.182,3221.372,2740.528,3219.996z"/>
				
					<linearGradient id="SVGID_00000034802163252606324630000003371173154524372925_" gradientUnits="userSpaceOnUse" x1="-1583.5365" y1="3097.3948" x2="-1601.5991" y2="3255.033" gradientTransform="matrix(-1 0 0 1 1263.6694 0)">
					<stop  offset="0" style="stop-color:#FEBBBA"/>
					<stop  offset="1" style="stop-color:#FF928E"/>
				</linearGradient>
				<path style="fill:url(#SVGID_00000034802163252606324630000003371173154524372925_);" d="M2869.38,3116.716
					c-0.301,2.019-4.013,32.701-5.45,44.598c-0.341,2.827-2.389,5.014-4.971,5.323c-4.612,0.551-12.074,1.052-18.603-0.286
					c-3.522-0.722-6.072-4.106-6.072-8.041v-48.163L2869.38,3116.716z"/>
				
					<linearGradient id="SVGID_00000052101571466177775410000015515094225442726285_" gradientUnits="userSpaceOnUse" x1="-1368.9216" y1="2376.5457" x2="-1946.6293" y2="3272.9897" gradientTransform="matrix(-1 0 0 1 1263.6694 0)">
					<stop  offset="0" style="stop-color:#4F52FF"/>
					<stop  offset="1" style="stop-color:#4042E2"/>
				</linearGradient>
				<path style="fill:url(#SVGID_00000052101571466177775410000015515094225442726285_);" d="M2891.109,2556.772
					c0,0-65.323,248.252-64.142,560.654c0.021,5.696,4.02,10.611,9.594,11.785c8.213,1.73,20.286,3.784,30.281,3.503
					c5.336-0.15,9.796-4.106,10.693-9.368c9.159-53.713,61.723-356.31,91.671-405.436c0,0,19.704,269.506,13.406,409.327
					c-0.156,3.477,2.39,6.492,5.847,6.892c5.244,0.606,13.634,1.067,24.311-0.068c4.052-0.43,7.323-3.494,7.902-7.528
					c6.524-45.46,44.075-316.051,42.479-510.975c-0.091-10.992-29.07-58.787-29.07-58.787H2891.109z"/>
				
					<linearGradient id="SVGID_00000089554656570480630400000014536330287295111041_" gradientUnits="userSpaceOnUse" x1="7496.6587" y1="-11804.8818" x2="7124.4165" y2="-11276.7002" gradientTransform="matrix(-1 0 0 1 495.9008 0)">
					<stop  offset="0" style="stop-color:#FF928E"/>
					<stop  offset="1" style="stop-color:#FE7062"/>
				</linearGradient>
				<path style="fill:url(#SVGID_00000089554656570480630400000014536330287295111041_);" d="M2800.26,2256.325
					c10.602-13.29,19.89-27.534,27.658-42.211c10.851-20.5,0.873,13.27,3.837-9.879c81.256-58.636,203.611-28.957,250.938-22.995
					c15.519,1.955,29.712,9.606,39.939,21.441c40.556,46.934,129.549,175.428,24.8,304.906
					c-13.404-7.441-32.452-19.374-45.389-33.182c11.589-32.668,12.538-74.415-11.75-125.608c-0.83,4.058-1.855,8.074-3.103,12.028
					c-33.474,106.049-35.26,194.298-35.186,214.637c0.011,2.762-1.647,5.249-4.212,6.276c-44.056,17.654-128.862,7.147-157.33,2.905
					c-5.219-0.778-8.731-5.637-8.01-10.865c13.971-101.222-57.733-267.737-76.672-309.444
					C2804.421,2261.333,2802.538,2258.632,2800.26,2256.325z"/>
				
					<linearGradient id="SVGID_00000082340859777707935820000016925036596773599134_" gradientUnits="userSpaceOnUse" x1="-1690.7657" y1="2072.7983" x2="-1759.7323" y2="2370.8323" gradientTransform="matrix(-1 0 0 1 1263.6694 0)">
					<stop  offset="0" style="stop-color:#FEBBBA"/>
					<stop  offset="1" style="stop-color:#FF928E"/>
				</linearGradient>
				<path style="fill:url(#SVGID_00000082340859777707935820000016925036596773599134_);" d="M3006.548,2096.006l8.491,86.749
					c0,0-48.801,14.699-84.296-10.345l24.952-78.841L3006.548,2096.006z"/>
				<g>
					
						<linearGradient id="SVGID_00000181797888334084145680000009699006105558424740_" gradientUnits="userSpaceOnUse" x1="-2599.8992" y1="-1745.9457" x2="-2722.2551" y2="-1584.079" gradientTransform="matrix(-0.6854 -0.7281 -0.7281 0.6854 -87.3297 1318.7853)">
						<stop  offset="0" style="stop-color:#FEBBBA"/>
						<stop  offset="1" style="stop-color:#FF928E"/>
					</linearGradient>
					<path style="fill:url(#SVGID_00000181797888334084145680000009699006105558424740_);" d="M2949.922,1997.133
						c-1.174,1.106-49.569,96.143-49.569,96.143l54.852,26.479l59.251-83.261
						C3014.456,2036.494,2969.586,1978.624,2949.922,1997.133z"/>
					
						<linearGradient id="SVGID_00000126281900269906056030000011004720293472319677_" gradientUnits="userSpaceOnUse" x1="-2693.3445" y1="-1707.0735" x2="-2547.1887" y2="-1707.0735" gradientTransform="matrix(-0.6854 -0.7281 -0.7281 0.6854 -87.3297 1318.7853)">
						<stop  offset="0" style="stop-color:#09005D"/>
						<stop  offset="1" style="stop-color:#1A0F91"/>
					</linearGradient>
					<path style="fill:url(#SVGID_00000126281900269906056030000011004720293472319677_);" d="M2990.186,2038.8
						c0.979,2.531,0.738,5.356-0.658,7.684l-27.357,45.604c-0.415,0.692-0.909,1.317-1.5,1.867
						c-3.256,3.031-14.399,11.847-23.013-0.156c-7.342-10.231-14.23-19.532-21.612-23.368c-4.31-2.24-9.615-0.452-11.803,3.885
						c-4.507,8.934-13.238,27.144-18.723,44.413c-1.374,4.327,0.86,8.975,5.069,10.68c11.106,4.5,33.058,12.638,52.538,15.326
						c3.199,0.442,6.368-0.908,8.272-3.517c8.381-11.481,32.001-43.566,40.064-51.597c7.49-7.461,21.313-4.647,27.541-2.858
						c2.365,0.68,4.882,0.352,6.989-0.917c6.32-3.806,17.348-13.285,7.259-29.334c-2.508-3.99-1.229-9.305,2.708-11.895
						c7.055-4.642,14.712-13.354,7.418-27.462c-7.385-14.282-20.571-15.564-29.553-14.467c-3.973,0.486-8.008-1.598-9.532-5.299
						c-0.678-1.647-2.019-3.05-4.515-3.557c-4.707-0.955-7.797-5.26-6.873-9.973c1.584-8.082,0.391-18.581-12.513-25.676
						c-23.667-13.013-44.398,8.19-49.67,26.088c-5.271,17.899,21.19,30.547,37.835,32.658
						C2980.785,2018.481,2987.489,2031.825,2990.186,2038.8z"/>
					
						<linearGradient id="SVGID_00000084526437985969179330000001953428414124157099_" gradientUnits="userSpaceOnUse" x1="-2779.1013" y1="-1617.7605" x2="-2680.9629" y2="-1718.4479" gradientTransform="matrix(-0.6854 -0.7281 -0.7281 0.6854 -87.3297 1318.7853)">
						<stop  offset="0" style="stop-color:#FEBBBA"/>
						<stop  offset="1" style="stop-color:#FF928E"/>
					</linearGradient>
					<path style="fill:url(#SVGID_00000084526437985969179330000001953428414124157099_);" d="M2981.186,2106.369
						c0,0,10.524-30.793,23.995-29.663c13.472,1.13,24.074,14.55,7.379,29.636
						C2991.793,2125.108,2981.186,2106.369,2981.186,2106.369z"/>
				</g>
				
					<linearGradient id="SVGID_00000094591338210760872190000005665445621565049479_" gradientUnits="userSpaceOnUse" x1="-1748.8463" y1="2128.9497" x2="-1891.6133" y2="2391.2427" gradientTransform="matrix(-1 0 0 1 1263.6694 0)">
					<stop  offset="0" style="stop-color:#E1473D"/>
					<stop  offset="1" style="stop-color:#E9605A"/>
				</linearGradient>
				<path style="fill:url(#SVGID_00000094591338210760872190000005665445621565049479_);" d="M3094.738,2340.865
					c17.757-48.594,11.315-107.273,11.248-107.86l-4.893,0.559c0.064,0.577,6.369,58.13-10.983,105.611L3094.738,2340.865z"/>
				
					<linearGradient id="SVGID_00000079450850886993094380000004999168963106453893_" gradientUnits="userSpaceOnUse" x1="-1692.9135" y1="2617.25" x2="-1741.3556" y2="2703.4607" gradientTransform="matrix(-1 0 0 1 1263.6694 0)">
					<stop  offset="0" style="stop-color:#09005D"/>
					<stop  offset="1" style="stop-color:#1A0F91"/>
				</linearGradient>
				<path style="fill:url(#SVGID_00000079450850886993094380000004999168963106453893_);" d="M2971.607,2711.582
					c1.094,0,2.095-0.735,2.381-1.845c5.417-20.893,45.981-43.854,46.39-44.083c1.185-0.666,1.609-2.167,0.943-3.354
					c-0.666-1.186-2.159-1.611-3.353-0.943c-1.744,0.978-42.806,24.222-48.747,47.143c-0.342,1.317,0.45,2.661,1.766,3.002
					C2971.193,2711.557,2971.403,2711.582,2971.607,2711.582z"/>
				<g>
					
						<linearGradient id="SVGID_00000097475821071815946480000011758376443074631088_" gradientUnits="userSpaceOnUse" x1="7584.9702" y1="-11742.6299" x2="7212.7275" y2="-11214.4473" gradientTransform="matrix(-1 0 0 1 495.9008 0)">
						<stop  offset="0" style="stop-color:#FF928E"/>
						<stop  offset="1" style="stop-color:#FE7062"/>
					</linearGradient>
					<path style="fill:url(#SVGID_00000097475821071815946480000011758376443074631088_);" d="M2635.323,2283.607
						c91.901,13.789,151.799-44.197,196.433-79.373c58.929-46.441,104.787-23.847,104.787-23.847l-62.844,119.94
						c-93.85,88.487-190.075,68.837-250.738,40.162C2622.026,2317.323,2628.217,2297.935,2635.323,2283.607z"/>
					
						<linearGradient id="SVGID_00000137095791640613980420000013126421957481273224_" gradientUnits="userSpaceOnUse" x1="-1916.8842" y1="2065.5166" x2="-2338.9216" y2="2605.4766" gradientTransform="matrix(-1 0 0 1 495.9008 0)">
						<stop  offset="0" style="stop-color:#FEBBBA"/>
						<stop  offset="1" style="stop-color:#FF928E"/>
					</linearGradient>
					<path style="fill:url(#SVGID_00000137095791640613980420000013126421957481273224_);" d="M2506.157,2228.779l30.476,16.4
						c36.55,22.253,69.257,34.012,98.689,38.428c-7.106,14.328-13.297,33.716-12.363,56.882
						c-38.617-18.253-62.828-40.162-62.828-40.162C2491.094,2259.16,2506.157,2228.779,2506.157,2228.779z"/>
				</g>
				
					<linearGradient id="SVGID_00000031186999261789804080000003450171949695186096_" gradientUnits="userSpaceOnUse" x1="-1860.4016" y1="2109.6621" x2="-2282.4395" y2="2649.6228" gradientTransform="matrix(-1 0 0 1 495.9008 0)">
					<stop  offset="0" style="stop-color:#FEBBBA"/>
					<stop  offset="1" style="stop-color:#FF928E"/>
				</linearGradient>
				<path style="fill:url(#SVGID_00000031186999261789804080000003450171949695186096_);" d="M2416.375,2271.726
					c1.968-6.54,6.803-11.832,13.141-14.38l61.85-24.873c0,0,0.934-7.932-13.068-13.323c-14.003-5.39-10.729-21.072-10.729-21.072
					s19.129,8.726,47.135,22.567c16.016,7.915,25.001,21.889,29.767,32.409l-15.922,20.939
					c-38.12,11.452-76.694,13.642-115.596,9.099L2416.375,2271.726z"/>
			</g>
			<path style="fill:#7D97F4;" d="M2938.384,1993.858c-0.049-0.213-4.638-21.354,18.324-31.87l1.395,3.046
				c-20.42,9.357-16.621,27.314-16.451,28.074L2938.384,1993.858z"/>
		</g>
		<g>
			
				<linearGradient id="SVGID_00000137102509153487752880000015711731411748135074_" gradientUnits="userSpaceOnUse" x1="756.1528" y1="2010.9075" x2="969.1128" y2="2581.0378">
				<stop  offset="0" style="stop-color:#09005D"/>
				<stop  offset="1" style="stop-color:#1A0F91"/>
			</linearGradient>
			<path style="fill:url(#SVGID_00000137102509153487752880000015711731411748135074_);" d="M597.616,1969.997
				c0,0,173.282,457,228.028,552.068c63.549,110.356,249.146,40.035,239.91-52.321c-9.235-92.356-226.077-474.095-226.077-474.095
				L597.616,1969.997z"/>
			
				<linearGradient id="SVGID_00000003099485591832929320000001594740180826370195_" gradientUnits="userSpaceOnUse" x1="3109.6174" y1="329.6122" x2="2519.3643" y2="879.6201">
				<stop  offset="0" style="stop-color:#FF928E"/>
				<stop  offset="1" style="stop-color:#FE7062"/>
			</linearGradient>
			<polygon style="fill:url(#SVGID_00000003099485591832929320000001594740180826370195_);" points="831.752,1637.096 
				1908.76,1263.68 1897.449,2274.202 802.319,2029.852 			"/>
			
				<linearGradient id="SVGID_00000016067372708421962170000011807485538266074300_" gradientUnits="userSpaceOnUse" x1="1165.6329" y1="995.5175" x2="2964.9495" y2="2872.7258">
				<stop  offset="0" style="stop-color:#FEBBBA"/>
				<stop  offset="1" style="stop-color:#FF928E"/>
			</linearGradient>
			
				<ellipse style="fill:url(#SVGID_00000016067372708421962170000011807485538266074300_);" cx="1909.775" cy="1771.873" rx="105.812" ry="519.315"/>
			
				<linearGradient id="SVGID_00000134943436560273889250000014311081037047770017_" gradientUnits="userSpaceOnUse" x1="1792.802" y1="1780.3049" x2="2071.322" y2="1754.985">
				<stop  offset="0" style="stop-color:#E1473D"/>
				<stop  offset="1" style="stop-color:#E9605A"/>
			</linearGradient>
			<path style="fill:url(#SVGID_00000134943436560273889250000014311081037047770017_);" d="M1917.806,2255.674
				c-9.563-9.727-30.397-47.248-48.258-144.274c-17.263-93.766-26.769-215.387-26.769-342.457
				c0-127.071,9.506-248.692,26.769-342.458c17.861-97.028,38.695-134.549,48.258-144.276c9.563,9.727,30.398,47.249,48.259,144.276
				c17.263,93.766,26.769,215.386,26.769,342.458c0,127.07-9.506,248.691-26.769,342.457
				C1948.203,2208.426,1927.369,2245.947,1917.806,2255.674z"/>
			<g>
				<defs>
					<path id="SVGID_00000163056299711509392570000013050159966940105636_" d="M1917.806,2255.674
						c-9.563-9.727-30.397-47.248-48.258-144.274c-17.263-93.766-26.769-215.387-26.769-342.457
						c0-127.071,9.506-248.692,26.769-342.458c17.861-97.028,38.695-134.549,48.258-144.276
						c9.563,9.727,30.398,47.249,48.259,144.276c17.263,93.766,153.48,215.386,153.48,342.458
						c0,127.07-136.217,248.691-153.48,342.457C1948.203,2208.426,1927.369,2245.947,1917.806,2255.674z"/>
				</defs>
				<clipPath id="SVGID_00000178185799891903973280000003374982670445899392_">
					<use xlink:href="#SVGID_00000163056299711509392570000013050159966940105636_"  style="overflow:visible;"/>
				</clipPath>
				
					<linearGradient id="SVGID_00000029018250229545503930000003589915483642066055_" gradientUnits="userSpaceOnUse" x1="2144.1995" y1="1751.7372" x2="1393.0369" y2="1794.8372">
					<stop  offset="0" style="stop-color:#09005D"/>
					<stop  offset="1" style="stop-color:#1A0F91"/>
				</linearGradient>
				
					<path style="clip-path:url(#SVGID_00000178185799891903973280000003374982670445899392_);fill:url(#SVGID_00000029018250229545503930000003589915483642066055_);" d="
					M2053.428,1765.074c0,88.237-47.533,159.768-141.613,159.768c-94.079,0-170.346-71.531-170.346-159.768
					c0-88.237,76.266-159.768,170.346-159.768C2005.895,1605.306,2053.428,1676.837,2053.428,1765.074z"/>
			</g>
			
				<linearGradient id="SVGID_00000090286435227680643480000001868061080866707107_" gradientUnits="userSpaceOnUse" x1="946.4039" y1="1449.4469" x2="810.5786" y2="1697.6211">
				<stop  offset="0" style="stop-color:#09005D"/>
				<stop  offset="1" style="stop-color:#1A0F91"/>
			</linearGradient>
			<path style="fill:url(#SVGID_00000090286435227680643480000001868061080866707107_);" d="M658.046,1615.374
				c50.664-5.884,123.316-8.001,201.868,9.989c-25.88,135.191-21.975,276.1,7.957,422.006l-221.558,0
				c-35.324,0-65.445-25.658-70.954-60.55c-11.042-69.939-24.541-187.489-10.147-281.9
				C572.436,1657.538,610.438,1620.902,658.046,1615.374z"/>
			<path style="fill:#BDD0FB;" d="M791.015,1718.913h-172.62c-5.859,0-11.029-3.072-13.829-8.219
				c-2.799-5.147-2.57-11.158,0.613-16.076c1.332-2.058,4.08-2.635,6.138-1.315c2.057,1.332,2.647,4.08,1.315,6.141
				c-1.387,2.144-1.487,4.762-0.267,7.008c1.221,2.243,3.476,3.584,6.031,3.584h172.62c3.786,0,6.865-3.078,6.865-6.864v-12.285
				c0-3.786-3.079-6.863-6.865-6.863H617.114c-2.452,0-4.439-1.988-4.439-4.439c0-2.451,1.987-4.439,4.439-4.439h173.901
				c8.681,0,15.742,7.063,15.742,15.741v12.285C806.757,1711.85,799.696,1718.913,791.015,1718.913z"/>
			<path style="fill:#BDD0FB;" d="M775.622,1795.363h-172.62c-5.859,0-11.029-3.072-13.829-8.219
				c-2.799-5.147-2.571-11.158,0.612-16.076c1.332-2.055,4.082-2.636,6.138-1.315c2.057,1.332,2.647,4.08,1.315,6.141
				c-1.387,2.144-1.487,4.763-0.268,7.008c1.221,2.242,3.476,3.583,6.031,3.583h172.62c3.786,0,6.865-3.078,6.865-6.863v-12.282
				c0-3.786-3.079-6.866-6.865-6.866H601.721c-2.452,0-4.439-1.988-4.439-4.439c0-2.451,1.987-4.439,4.439-4.439h173.901
				c8.681,0,15.742,7.063,15.742,15.744v12.282C791.364,1788.3,784.303,1795.363,775.622,1795.363z"/>
			
				<linearGradient id="SVGID_00000092457954595883642750000003840540765876384428_" gradientUnits="userSpaceOnUse" x1="1045.9651" y1="1110.2197" x2="2845.2847" y2="2987.4312">
				<stop  offset="0" style="stop-color:#FEBBBA"/>
				<stop  offset="1" style="stop-color:#FF928E"/>
			</linearGradient>
			<path style="fill:url(#SVGID_00000092457954595883642750000003840540765876384428_);" d="M988.247,1609.744
				c-1.881,0-3.627-1.205-4.228-3.092c-0.744-2.338,0.548-4.832,2.883-5.577l815.714-259.575c2.335-0.743,4.832,0.549,5.576,2.884
				c0.744,2.338-0.548,4.832-2.882,5.578l-815.714,259.575C989.148,1609.678,988.694,1609.744,988.247,1609.744z"/>
			
				<linearGradient id="SVGID_00000130636449400860475230000006729850320661620371_" gradientUnits="userSpaceOnUse" x1="703.7728" y1="1438.2125" x2="2503.092" y2="3315.4236">
				<stop  offset="0" style="stop-color:#FEBBBA"/>
				<stop  offset="1" style="stop-color:#FF928E"/>
			</linearGradient>
			<path style="fill:url(#SVGID_00000130636449400860475230000006729850320661620371_);" d="M877.94,1654.837
				c-1.75,0-3.407-1.041-4.111-2.76c-0.928-2.269,0.16-4.861,2.43-5.788l41.982-17.16c2.267-0.934,4.861,0.162,5.788,2.43
				c0.927,2.268-0.16,4.861-2.43,5.788l-41.982,17.16C879.069,1654.733,878.499,1654.837,877.94,1654.837z"/>
			<path style="fill:#BDD0FB;" d="M791.015,1884.898h-172.62c-5.859,0-11.028-3.072-13.828-8.219
				c-2.8-5.147-2.572-11.157,0.611-16.076c1.332-2.061,4.08-2.641,6.138-1.318c2.057,1.332,2.647,4.08,1.315,6.138
				c-1.388,2.147-1.488,4.768-0.266,7.014c1.221,2.242,3.475,3.583,6.03,3.583h172.62c3.786,0,6.865-3.08,6.865-6.866v-12.282
				c0-3.786-3.079-6.864-6.865-6.864H617.114c-2.452,0-4.439-1.988-4.439-4.439c0-2.45,1.987-4.439,4.439-4.439h173.901
				c8.681,0,15.742,7.063,15.742,15.741v12.282C806.757,1877.835,799.696,1884.898,791.015,1884.898z"/>
			<path style="fill:#BDD0FB;" d="M807.177,1984.279h-172.62c-5.859,0-11.028-3.072-13.828-8.219
				c-2.8-5.147-2.572-11.158,0.611-16.076c1.334-2.06,4.082-2.641,6.138-1.318c2.057,1.332,2.647,4.08,1.315,6.138
				c-1.388,2.147-1.488,4.768-0.266,7.014c1.221,2.242,3.475,3.583,6.03,3.583h172.62c3.786,0,6.865-3.078,6.865-6.864v-12.285
				c0-3.785-3.079-6.863-6.865-6.863H633.277c-2.452,0-4.439-1.988-4.439-4.439s1.987-4.439,4.439-4.439h173.901
				c8.681,0,15.742,7.063,15.742,15.741v12.285C822.919,1977.216,815.858,1984.279,807.177,1984.279z"/>
			<path style="fill:#BDD0FB;" d="M961.349,2524.612c-7.954,0-15.994-0.858-24.014-2.607c-35.096-7.646-63.667-30.788-78.388-63.492
				l-137.914-306.39c-1.007-2.234-0.01-4.861,2.225-5.869c2.235-1.009,4.863-0.006,5.869,2.228l137.914,306.39
				c13.555,30.109,39.865,51.418,72.183,58.458c31.763,6.927,63.904-1.295,88.187-22.546c1.302-1.139,2.609-2.309,3.923-3.508
				c1.809-1.653,4.616-1.529,6.271,0.283c1.653,1.809,1.527,4.618-0.283,6.271c-1.362,1.245-2.716,2.456-4.066,3.635
				C1012.971,2515.214,987.646,2524.612,961.349,2524.612z"/>
			<path style="fill:#BDD0FB;" d="M704.691,2109.438c-1.693,0-3.31-0.974-4.05-2.615l-15.385-34.181
				c-1.007-2.234-0.01-4.861,2.225-5.869c2.234-1.005,4.863-0.006,5.869,2.225l15.385,34.178c1.007,2.236,0.01,4.863-2.225,5.872
				C705.919,2109.313,705.299,2109.438,704.691,2109.438z"/>
			<path style="fill:#91B3FA;" d="M2028.21,1760.474c-2.309,0-4.257-1.786-4.423-4.124c-3.067-43.234-18.053-75.467-44.539-95.803
				c-45.804-35.166-111.161-23.081-111.818-22.951c-2.42,0.46-4.734-1.11-5.197-3.517c-0.465-2.407,1.111-4.736,3.518-5.199
				c2.832-0.546,69.965-12.944,118.903,24.624c28.587,21.948,44.733,56.34,47.987,102.216c0.173,2.445-1.667,4.569-4.114,4.742
				C2028.421,1760.471,2028.315,1760.474,2028.21,1760.474z"/>
		</g>
		<g>
			
				<linearGradient id="SVGID_00000150824636927606073460000013889088153297780643_" gradientUnits="userSpaceOnUse" x1="3351.9604" y1="50.1826" x2="3155.7793" y2="422.4243">
				<stop  offset="0" style="stop-color:#FF928E"/>
				<stop  offset="1" style="stop-color:#FE7062"/>
			</linearGradient>
			
				<circle style="fill:url(#SVGID_00000150824636927606073460000013889088153297780643_);" cx="2514.763" cy="1638.715" r="197.791"/>
			<g style="opacity:0.9;">
				<path style="fill:#FFFFFF;" d="M2517.488,1768.375c-71.435,0-129.552-58.117-129.552-129.552s58.117-129.552,129.552-129.552
					c71.435,0,129.552,58.117,129.552,129.552S2588.923,1768.375,2517.488,1768.375z M2517.488,1530.982
					c-59.464,0-107.842,48.377-107.842,107.842c0,59.464,48.378,107.842,107.842,107.842c59.464,0,107.842-48.377,107.842-107.842
					C2625.33,1579.359,2576.952,1530.982,2517.488,1530.982z"/>
				<path style="fill-rule:evenodd;clip-rule:evenodd;fill:#FFFFFF;" d="M2476.904,1688.715v-93.138
					c0-9.952,10.833-16.121,19.392-11.042l78.481,46.569c8.383,4.974,8.383,17.109,0,22.084l-78.481,46.569
					C2487.737,1704.835,2476.904,1698.667,2476.904,1688.715z"/>
			</g>
		</g>
		<g>
			
				<linearGradient id="SVGID_00000042723650527712626030000002406086726163409029_" gradientUnits="userSpaceOnUse" x1="2727.7275" y1="975.1686" x2="2612.03" y2="1790.0798">
				<stop  offset="0" style="stop-color:#FF928E"/>
				<stop  offset="1" style="stop-color:#FE7062"/>
			</linearGradient>
			
				<circle style="fill:url(#SVGID_00000042723650527712626030000002406086726163409029_);" cx="2699.681" cy="1172.712" r="170.275"/>
			<g>
				<path style="fill:#FFFFFF;" d="M2786.7,1102.299c-22.534-22.149-57.679-15.486-81.875,4.827
					c-3.468,2.912-8.494,2.945-12.01,0.094c-24.519-19.885-59.626-25.939-81.773-3.409c-24.044,24.464-23.707,63.785,0.757,87.83
					l81.852,80.455c3.719,3.654,9.697,3.602,13.352-0.116l80.454-81.852C2811.501,1165.667,2811.163,1126.344,2786.7,1102.299z"/>
			</g>
		</g>
		<g>
			
				<linearGradient id="SVGID_00000075852446051781211020000000060695928530963367_" gradientUnits="userSpaceOnUse" x1="2534.8333" y1="618.9614" x2="2343.6812" y2="966.0529">
				<stop  offset="0" style="stop-color:#FEBBBA"/>
				<stop  offset="1" style="stop-color:#FF928E"/>
			</linearGradient>
			
				<circle style="fill:url(#SVGID_00000075852446051781211020000000060695928530963367_);" cx="2080.755" cy="1443.47" r="168.047"/>
			<path style="fill:#FFFFFF;" d="M2195.108,1335.539h-217.991v197.869h217.991V1335.539z M2007.301,1366.845
				c0,1.232-0.999,2.231-2.23,2.231h-22.369c-1.232,0-2.231-0.999-2.231-2.231v-22.368c0-1.232,0.999-2.231,2.231-2.231h22.369
				c1.232,0,2.23,0.999,2.23,2.231V1366.845z M2044.192,1366.845c0,1.232-0.999,2.231-2.231,2.231h-22.368
				c-1.232,0-2.231-0.999-2.231-2.231v-22.368c0-1.232,0.999-2.231,2.231-2.231h22.368c1.232,0,2.231,0.999,2.231,2.231V1366.845z
				 M2077.729,1366.845c0,1.232-0.999,2.231-2.23,2.231h-22.369c-1.232,0-2.23-0.999-2.23-2.231v-22.368
				c0-1.232,0.999-2.231,2.23-2.231h22.369c1.232,0,2.23,0.999,2.23,2.231V1366.845z M2111.266,1366.845
				c0,1.232-0.999,2.231-2.23,2.231h-22.369c-1.232,0-2.23-0.999-2.23-2.231v-22.368c0-1.232,0.999-2.231,2.23-2.231h22.369
				c1.232,0,2.23,0.999,2.23,2.231V1366.845z M2148.156,1366.845c0,1.232-0.999,2.231-2.23,2.231h-22.368
				c-1.232,0-2.231-0.999-2.231-2.231v-22.368c0-1.232,0.999-2.231,2.231-2.231h22.368c1.232,0,2.23,0.999,2.23,2.231V1366.845z
				 M2185.047,1366.845c0,1.232-0.999,2.231-2.23,2.231h-22.369c-1.232,0-2.23-0.999-2.23-2.231v-22.368
				c0-1.232,0.999-2.231,2.23-2.231h22.369c1.232,0,2.23,0.999,2.23,2.231V1366.845z M2007.301,1517.762
				c0,1.232-0.999,2.231-2.23,2.231h-22.369c-1.232,0-2.231-0.999-2.231-2.231v-22.368c0-1.232,0.999-2.231,2.231-2.231h22.369
				c1.232,0,2.23,0.999,2.23,2.231V1517.762z M2044.192,1517.762c0,1.232-0.999,2.231-2.231,2.231h-22.368
				c-1.232,0-2.231-0.999-2.231-2.231v-22.368c0-1.232,0.999-2.231,2.231-2.231h22.368c1.232,0,2.231,0.999,2.231,2.231V1517.762z
				 M2077.729,1517.762c0,1.232-0.999,2.231-2.23,2.231h-22.369c-1.232,0-2.23-0.999-2.23-2.231v-22.368
				c0-1.232,0.999-2.231,2.23-2.231h22.369c1.232,0,2.23,0.999,2.23,2.231V1517.762z M2111.266,1517.762
				c0,1.232-0.999,2.231-2.23,2.231h-22.369c-1.232,0-2.23-0.999-2.23-2.231v-22.368c0-1.232,0.999-2.231,2.23-2.231h22.369
				c1.232,0,2.23,0.999,2.23,2.231V1517.762z M2148.156,1517.762c0,1.232-0.999,2.231-2.23,2.231h-22.368
				c-1.232,0-2.231-0.999-2.231-2.231v-22.368c0-1.232,0.999-2.231,2.231-2.231h22.368c1.232,0,2.23,0.999,2.23,2.231V1517.762z
				 M2185.047,1517.762c0,1.232-0.999,2.231-2.23,2.231h-22.369c-1.232,0-2.23-0.999-2.23-2.231v-22.368
				c0-1.232,0.999-2.231,2.23-2.231h22.369c1.232,0,2.23,0.999,2.23,2.231V1517.762z"/>
		</g>
		<g>
			<g>
				
					<linearGradient id="SVGID_00000054966651916800431490000007010539449690198938_" gradientUnits="userSpaceOnUse" x1="3251.8926" y1="1421.0791" x2="2854.4973" y2="1798.3525">
					<stop  offset="0" style="stop-color:#FF928E"/>
					<stop  offset="1" style="stop-color:#FE7062"/>
				</linearGradient>
				
					<circle style="fill:url(#SVGID_00000054966651916800431490000007010539449690198938_);" cx="2948.315" cy="1709.286" r="161.006"/>
			</g>
			<g>
				<g>
					<path style="fill:#FFFFFF;" d="M3053.657,1795.907c0,3.202-2.595,5.797-5.797,5.797h-199.69c-3.202,0-5.797-2.595-5.797-5.797
						v-166.153c0-3.202,2.595-5.797,5.797-5.797h199.69c3.202,0,5.797,2.595,5.797,5.797V1795.907z M2855.789,1788.289h187.808
						v-154.27h-187.808V1788.289z"/>
				</g>
				<g>
					<path style="fill:#FFFFFF;" d="M3002.298,1683.081c-1.59-2.063-4.54-3.278-7.144-3.295s-5.32,1.167-6.937,3.208l-42.77,53.869
						c-1.468,1.854-3.707,3.009-6.065,3.185c-2.358,0.176-4.713-0.643-6.441-2.258l-32.543-30.43
						c-3.215-3.007-7.825-3.047-11.087-0.091l-40.23,36.797v50.93h201.222v-50.93L3002.298,1683.081z"/>
				</g>
				<g>
					<circle style="fill:#FFFFFF;" cx="2902.664" cy="1665.568" r="20.531"/>
				</g>
			</g>
		</g>
	</g>
</g>
</svg>
