<?xml version="1.0" encoding="utf-8"?>
<!-- Generator: Adobe Illustrator 27.5.0, SVG Export Plug-In . SVG Version: 6.00 Build 0)  -->
<svg version="1.1" xmlns="http://www.w3.org/2000/svg" xmlns:xlink="http://www.w3.org/1999/xlink" x="0px" y="0px"
	 viewBox="0 0 500 500" style="enable-background:new 0 0 500 500;" xml:space="preserve">
<g id="BACKGROUND">
	<rect style="fill:#E6F7FF;" width="500" height="500"/>
</g>
<g id="OBJECTS">
	<g>
		<path style="fill:#C6EDFB;" d="M430.015,307.292c-11.558,26.129-35.12,47.824-67.701,56.568
			c-74.122,19.893-249.794,51.163-306.045-78.991c-27.834-64.402-14.342-130.946,40.882-175.191
			c31.722-25.415,73.551-45.178,114.192-49.458c21.3-2.243,43.656,2.368,60.374,16.317c18.432,15.379,21.761,39.079,35.942,57.376
			c25.748,33.223,71.788,39.253,100.894,68.401C436.37,230.173,446.208,270.685,430.015,307.292z"/>
		
			<line style="fill:none;stroke:#173845;stroke-width:1.1351;stroke-linecap:round;stroke-linejoin:round;stroke-miterlimit:10;" x1="48.939" y1="383.212" x2="446.026" y2="383.212"/>
		<g>
			<g>
				<path style="fill:#5491A8;" d="M172.532,268.107v26.142h-37.868v-26.142c0-5.199-1.271-10.194-3.587-14.621h37.868
					c0.295,0.556,0.568,1.112,0.817,1.691c0.125,0.284,0.25,0.568,0.374,0.863c0.114,0.284,0.238,0.579,0.341,0.874
					c0.102,0.25,0.193,0.5,0.284,0.761c0.034,0.091,0.068,0.181,0.091,0.284c0.091,0.238,0.17,0.488,0.238,0.738
					c0.409,1.283,0.738,2.611,0.965,3.962c0.057,0.329,0.114,0.67,0.159,0.999c0.114,0.749,0.193,1.521,0.239,2.293
					c0.034,0.34,0.045,0.692,0.057,1.033C172.521,267.358,172.532,267.733,172.532,268.107z"/>
				<path style="fill:#60A5BF;" d="M167.174,250.513c0.647,0.953,1.237,1.952,1.771,2.974h-37.868
					c-3.042-5.846-7.901-10.704-14.03-13.735l-11.908-5.88l-35.394-17.492h37.868l47.301,23.372c0.67,0.329,1.339,0.693,1.975,1.067
					c0.318,0.182,0.636,0.386,0.953,0.579c0.307,0.204,0.624,0.397,0.92,0.613c0.658,0.443,1.294,0.919,1.907,1.408
					c0.25,0.193,0.488,0.397,0.727,0.602c0.556,0.465,1.09,0.965,1.612,1.476c0.17,0.17,0.34,0.34,0.511,0.511
					c0.352,0.341,0.681,0.704,0.999,1.067c0.238,0.272,0.477,0.545,0.704,0.829c0.216,0.261,0.431,0.522,0.636,0.783
					c0.045,0.045,0.079,0.091,0.102,0.136c0.193,0.25,0.386,0.499,0.568,0.749c0.034,0.045,0.057,0.079,0.091,0.125
					C166.8,249.968,166.993,250.24,167.174,250.513z"/>
				<path style="fill:#5491A8;" d="M382.215,268.107v26.142h-41.614v-26.142c0-5.199-1.272-10.194-3.587-14.621h41.614
					C380.943,257.914,382.215,262.908,382.215,268.107z"/>
				<path style="fill:#60A5BF;" d="M378.628,253.487h-41.614c-3.042-5.846-7.901-10.704-14.03-13.735l-47.301-23.372h41.614
					l47.301,23.372C370.727,242.782,375.586,247.641,378.628,253.487z"/>
				<path style="fill:#327994;" d="M134.664,268.107v26.142H67.271v-77.87h2.475l35.394,17.492l11.908,5.88
					c6.13,3.031,10.988,7.889,14.03,13.735C133.393,257.914,134.664,262.908,134.664,268.107z"/>
				<path style="fill:#327994;" d="M131.077,253.487c-3.042-5.846-7.901-10.704-14.03-13.735l-11.908-5.88l-35.394-17.493h-2.475
					v12.145l10.82,5.348l11.908,5.88c6.13,3.031,10.988,7.889,14.03,13.735c2.316,4.427,3.587,9.422,3.587,14.621v26.142h27.048
					v-26.142C134.664,262.908,133.393,257.914,131.077,253.487z"/>
				<path style="fill:#5EA3BD;" d="M340.601,268.107v26.142H172.532v-26.142c0-0.375-0.011-0.749-0.023-1.124
					c-0.011-0.341-0.023-0.693-0.057-1.033c-0.046-0.772-0.125-1.544-0.239-2.293c-0.045-0.341-0.091-0.67-0.159-0.999
					c-0.227-1.351-0.556-2.679-0.965-3.962c-0.068-0.25-0.148-0.499-0.238-0.738c-0.023-0.102-0.057-0.193-0.091-0.284
					c-0.091-0.261-0.182-0.511-0.284-0.761c-0.102-0.295-0.227-0.59-0.341-0.874c-0.125-0.295-0.25-0.579-0.374-0.863
					c-0.25-0.579-0.522-1.135-0.817-1.691h168.068C339.329,257.914,340.601,262.908,340.601,268.107z"/>
				<polygon style="fill:#60A5BF;" points="307.298,232.001 139.23,232.001 107.616,216.382 275.684,216.382 				"/>
				<path style="fill:#68B2CF;" d="M337.016,253.49H168.947c-0.534-1.022-1.124-2.021-1.771-2.974
					c-0.17-0.272-0.363-0.545-0.556-0.817c-0.034-0.045-0.057-0.079-0.091-0.125c-0.182-0.25-0.363-0.499-0.568-0.749
					c-0.023-0.045-0.057-0.091-0.102-0.136c-0.204-0.261-0.409-0.522-0.636-0.783c-0.216-0.284-0.454-0.556-0.704-0.829
					c-0.318-0.363-0.647-0.727-0.999-1.067c-0.159-0.182-0.34-0.352-0.511-0.511c-0.522-0.511-1.056-1.01-1.612-1.476
					c-0.238-0.204-0.477-0.409-0.726-0.602c-0.613-0.488-1.249-0.965-1.907-1.408c-0.295-0.216-0.602-0.42-0.919-0.613
					c-0.306-0.204-0.624-0.397-0.953-0.579c-0.636-0.375-1.305-0.738-1.975-1.067l-15.688-7.753h168.068l15.688,7.753
					C329.115,242.785,333.974,247.644,337.016,253.49z"/>
				<rect x="177.625" y="253.49" style="fill:#173845;" width="155.924" height="11.198"/>
				<path style="fill:#5491A8;" d="M139.23,216.382H86.829v-13.329c0-2.454,1.99-4.444,4.444-4.444h43.513
					c2.454,0,4.444,1.99,4.444,4.444V216.382z"/>
				<path style="fill:#5491A8;" d="M316.954,216.382h-52.401v-31.028c0-3.564,2.889-6.454,6.453-6.454H310.5
					c3.564,0,6.453,2.889,6.453,6.454V216.382z"/>
				<path style="fill:#E6F7FF;" d="M311.441,207.495h-41.375v-21.744c0-1.606,1.301-2.907,2.907-2.907h35.561
					c1.606,0,2.907,1.301,2.907,2.907V207.495z"/>
				<path style="fill:#327994;" d="M316.954,216.382h-52.401v-1.79c0-1.144,0.927-2.072,2.072-2.072h48.258
					c1.144,0,2.072,0.927,2.072,2.072V216.382z"/>
				<rect x="86.829" y="212.52" style="fill:#327994;" width="52.401" height="3.862"/>
				<g>
					<rect x="273.474" y="187.016" style="fill:#60A5BF;" width="26.664" height="1.304"/>
					<rect x="273.474" y="190.639" style="fill:#60A5BF;" width="17.279" height="1.304"/>
				</g>
				<g>
					<rect x="273.474" y="196" style="fill:#60A5BF;" width="26.664" height="1.304"/>
					<rect x="273.474" y="199.623" style="fill:#60A5BF;" width="17.279" height="1.304"/>
				</g>
				<g>
					<path style="fill:#FAF105;" d="M122.224,206.434c0-1.406,1.14-2.546,2.546-2.546c1.406,0,2.546,1.14,2.546,2.546
						c0,1.406-1.14,2.546-2.546,2.546C123.364,208.98,122.224,207.84,122.224,206.434z"/>
					<path style="fill:#76E4FD;" d="M110.483,206.434c0-1.406,1.14-2.546,2.546-2.546c1.406,0,2.546,1.14,2.546,2.546
						c0,1.406-1.14,2.546-2.546,2.546C111.623,208.98,110.483,207.84,110.483,206.434z"/>
					<path style="fill:#ED99D5;" d="M98.742,206.434c0-1.406,1.14-2.546,2.546-2.546c1.406,0,2.546,1.14,2.546,2.546
						c0,1.406-1.14,2.546-2.546,2.546C99.882,208.98,98.742,207.84,98.742,206.434z"/>
				</g>
				<rect x="67.271" y="294.249" style="fill:#173845;" width="36.563" height="2.512"/>
				<g>
					<g>
						<rect x="67.271" y="294.249" style="fill:#5491A8;" width="36.563" height="79.992"/>
						<rect x="67.271" y="372.212" style="fill:#173845;" width="36.563" height="2.029"/>
						<path style="fill:#5491A8;" d="M106.13,374.241H64.976c-1.932,0-3.498,1.566-3.498,3.498v4.811h48.15v-4.811
							C109.628,375.807,108.062,374.241,106.13,374.241z"/>
						<rect x="67.271" y="294.249" style="fill:#173845;" width="36.563" height="2.512"/>
					</g>
					<rect x="67.271" y="294.249" style="fill:#5491A8;" width="36.563" height="79.992"/>
					<rect x="67.271" y="372.212" style="fill:#327994;" width="36.563" height="2.029"/>
					<path style="fill:#5491A8;" d="M106.13,374.241H64.976c-1.932,0-3.498,1.566-3.498,3.498v4.811h48.15v-4.811
						C109.628,375.807,108.062,374.241,106.13,374.241z"/>
					<path style="fill:#327994;" d="M88.315,374.241h2.296v-2.029v-75.45v-2.512H67.271v2.512v75.45v2.029h-2.296
						c-1.932,0-3.498,1.566-3.498,3.498v4.811h23.339v-4.811C84.817,375.807,86.383,374.241,88.315,374.241z"/>
				</g>
				<g>
					<g>
						<rect x="345.597" y="294.249" style="fill:#5491A8;" width="36.563" height="79.992"/>
						<rect x="345.597" y="372.212" style="fill:#173845;" width="36.563" height="2.029"/>
						<path style="fill:#5491A8;" d="M384.456,374.241h-41.155c-1.932,0-3.498,1.566-3.498,3.498v4.811h48.15v-4.811
							C387.954,375.807,386.388,374.241,384.456,374.241z"/>
						<rect x="345.597" y="294.249" style="fill:#173845;" width="36.563" height="2.512"/>
					</g>
					<rect x="345.597" y="294.249" style="fill:#5491A8;" width="36.563" height="79.992"/>
					<rect x="345.597" y="372.212" style="fill:#327994;" width="36.563" height="2.029"/>
					<path style="fill:#5491A8;" d="M384.456,374.241h-41.155c-1.932,0-3.498,1.566-3.498,3.498v4.811h48.15v-4.811
						C387.954,375.807,386.388,374.241,384.456,374.241z"/>
					<path style="fill:#327994;" d="M366.641,374.241h2.296v-2.029v-75.45v-2.512h-23.339v2.512v75.45v2.029h-2.296
						c-1.932,0-3.498,1.566-3.498,3.498v4.811h23.339v-4.811C363.143,375.807,364.709,374.241,366.641,374.241z"/>
				</g>
			</g>
			<g>
				<path style="fill:#F7FDFF;" d="M228.36,429.853h-10.784c0,0-10.148,10.273-18.083,10.466h-0.522
					c-2.849-0.079-5.369-1.555-6.958-5.38c-6.084-14.609,20.047-29.843,15.358-52.33c-4.314-20.659-30.626-12.929-38.356-30.649
					c-0.227-0.545-0.443-1.09-0.624-1.635h57.245c0.817,0.738,1.725,1.442,2.724,2.123
					C259.088,373.392,228.36,429.853,228.36,429.853z"/>
				<path style="fill:#F7FDFF;" d="M343.814,429.853h-36.517c0,0,26.562-53.295,4.143-72.955c-2.588-2.27-4.824-4.45-6.72-6.573
					h16.38c0.182,0.545,0.397,1.09,0.624,1.635c7.73,17.719,34.043,9.989,38.356,30.649
					C364.235,402.508,344.257,416.72,343.814,429.853z"/>
				<path style="fill:#FFFFFF;" d="M334.835,307.395c-5.846,12.407-18.616,28.48-13.735,42.931H168.39
					c-4.881-14.45,7.889-30.524,13.724-42.931c7.73-16.471,10.523-32.42-3.303-47.063h152.721
					C345.358,274.975,342.566,290.924,334.835,307.395z"/>
				<path style="fill:#FFFFFF;" d="M370.297,429.853c0,0-10.159,10.273-18.094,10.466h-152.71
					c7.935-0.193,18.083-10.466,18.083-10.466H370.297z"/>
			</g>
			<g>
				<path style="fill:#FAD505;" d="M307.297,429.853h-22.385c0,0,30.717-56.462,0-77.405c-0.999-0.681-1.907-1.385-2.724-2.123
					h22.532c1.896,2.123,4.132,4.302,6.72,6.573C333.859,376.559,307.297,429.853,307.297,429.853z"/>
				<path style="fill:#FAF105;" d="M311.44,296.622c-16.062,24.689-21.25,37.471-6.72,53.703h-79.085
					c-0.307-0.272-0.602-0.556-0.874-0.829c-0.125-0.125-0.25-0.25-0.352-0.363c-0.443-0.443-0.84-0.897-1.215-1.362
					c-0.113-0.136-0.227-0.284-0.329-0.431c-0.579-0.738-1.078-1.498-1.521-2.282c-0.114-0.193-0.227-0.386-0.329-0.59
					c-0.125-0.227-0.25-0.465-0.363-0.704c-0.068-0.17-0.148-0.329-0.216-0.499c-0.091-0.204-0.182-0.409-0.261-0.613
					c-0.091-0.204-0.17-0.409-0.238-0.624c-0.079-0.204-0.159-0.409-0.227-0.624s-0.136-0.42-0.193-0.636
					c-0.068-0.216-0.125-0.431-0.182-0.636c-0.193-0.692-0.34-1.396-0.454-2.111c-0.068-0.363-0.113-0.715-0.159-1.078
					c-0.034-0.272-0.068-0.533-0.091-0.806c-2.134-22.793,23.622-55.554,14.416-75.804h80.436
					C318.387,267.086,322.724,279.289,311.44,296.622z"/>
				<path style="fill:#54D3F0;" d="M284.912,429.853h-29.593c0,0,30.728-56.462,0-77.405c-0.999-0.681-1.907-1.385-2.724-2.123
					h29.593c0.817,0.738,1.725,1.442,2.724,2.123C315.629,373.392,284.912,429.853,284.912,429.853z"/>
				<path style="fill:#76E4FD;" d="M282.188,350.326h-29.593c-0.306-0.272-0.602-0.556-0.874-0.829
					c-0.125-0.125-0.25-0.25-0.352-0.363c-0.443-0.443-0.84-0.897-1.215-1.362c-0.113-0.136-0.227-0.284-0.329-0.431
					c-0.579-0.738-1.078-1.498-1.521-2.282c-0.114-0.193-0.227-0.386-0.329-0.59c-0.125-0.227-0.25-0.465-0.363-0.704
					c-0.068-0.17-0.148-0.329-0.216-0.499c-0.091-0.204-0.182-0.409-0.261-0.613c-0.091-0.204-0.17-0.409-0.238-0.624
					c-0.079-0.204-0.159-0.409-0.227-0.624s-0.136-0.42-0.193-0.636c-0.068-0.216-0.125-0.431-0.182-0.636
					c-0.193-0.692-0.34-1.396-0.454-2.111c-0.068-0.363-0.114-0.715-0.159-1.078c-0.034-0.272-0.068-0.533-0.091-0.806
					c-2.134-22.793,23.622-55.554,14.416-75.804h29.582C300.974,285.373,258.929,329.507,282.188,350.326z"/>
				<path style="fill:#E381C7;" d="M255.319,429.853h-26.96c0,0,30.728-56.462,0-77.405c-0.999-0.681-1.907-1.385-2.724-2.123
					h26.959c0.817,0.738,1.725,1.442,2.724,2.123C286.047,373.392,255.319,429.853,255.319,429.853z"/>
				<path style="fill:#ED99D5;" d="M251.721,349.497c0.273,0.272,0.568,0.556,0.874,0.829h-26.959
					c-0.307-0.272-0.602-0.556-0.874-0.829c-0.125-0.125-0.25-0.25-0.352-0.363c-0.443-0.443-0.84-0.897-1.215-1.362
					c-0.113-0.136-0.227-0.284-0.329-0.431c-0.579-0.738-1.078-1.498-1.521-2.282c-0.114-0.193-0.227-0.386-0.329-0.59
					c-0.125-0.227-0.25-0.465-0.363-0.704c-0.068-0.17-0.148-0.329-0.216-0.499c-0.091-0.204-0.182-0.409-0.261-0.613
					c-0.091-0.204-0.17-0.409-0.238-0.624c-0.079-0.204-0.159-0.409-0.227-0.624s-0.136-0.42-0.193-0.636
					c-0.068-0.216-0.125-0.431-0.182-0.636c-0.193-0.692-0.34-1.396-0.454-2.111c-0.068-0.363-0.113-0.715-0.159-1.078
					c-0.034-0.272-0.068-0.533-0.091-0.806c-2.134-22.793,23.622-55.554,14.416-75.804h26.96
					c9.206,20.251-16.55,53.011-14.416,75.804c0.023,0.273,0.057,0.545,0.091,0.806c0.045,0.363,0.091,0.727,0.159,1.078
					c0.114,0.715,0.261,1.419,0.454,2.111c0.057,0.204,0.113,0.42,0.182,0.636c0.057,0.216,0.125,0.42,0.193,0.636
					s0.148,0.42,0.227,0.624c0.068,0.216,0.148,0.42,0.238,0.624c0.079,0.204,0.17,0.409,0.261,0.613
					c0.068,0.17,0.148,0.329,0.216,0.499c0.114,0.238,0.238,0.477,0.363,0.704c0.102,0.204,0.216,0.397,0.329,0.59
					c0.443,0.783,0.942,1.544,1.521,2.282c0.102,0.148,0.216,0.295,0.329,0.431c0.375,0.465,0.772,0.919,1.215,1.362
					C251.471,349.247,251.596,349.372,251.721,349.497z"/>
			</g>
		</g>
		<g>
			<g>
				<g>
					<polygon style="fill:#E381C7;" points="377.473,318.515 370.044,321.477 392.541,358.908 					"/>
					
						<rect x="387.158" y="311.467" transform="matrix(0.9289 -0.3703 0.3703 0.9289 -99.3559 170.5251)" style="fill:#ED99D5;" width="14.516" height="65.092"/>
					<path style="fill:#E381C7;" d="M389.105,311.093c0.194,0.486-2.668,2.083-6.391,3.568c-3.724,1.484-6.899,2.294-7.093,1.808
						c-0.194-0.486,2.668-2.083,6.391-3.568C385.736,311.416,388.911,310.607,389.105,311.093z"/>
				</g>
				<g>
					<polygon style="fill:#F7FDFF;" points="424.726,314.185 417.371,311.04 406.896,353.436 					"/>
					
						<rect x="411.478" y="311.66" transform="matrix(0.9195 0.3931 -0.3931 0.9195 169.0359 -136.9048)" style="fill:#FFFFFF;" width="14.516" height="65.092"/>
					<path style="fill:#F7FDFF;" d="M438.205,317.134c-0.206,0.481-3.36-0.406-7.046-1.982c-3.686-1.576-6.507-3.243-6.301-3.724
						c0.206-0.481,3.36,0.406,7.046,1.982C435.59,314.986,438.411,316.653,438.205,317.134z"/>
				</g>
				<g>
					<polygon style="fill:#FAD505;" points="403.274,310.282 395.28,310.577 403.901,353.389 					"/>
					
						<rect x="403.412" y="307.442" transform="matrix(0.9993 -0.0369 0.0369 0.9993 -12.2627 15.3811)" style="fill:#FAF105;" width="14.516" height="65.092"/>
					<path style="fill:#FAD505;" d="M416.722,307.197c0.019,0.523-3.212,1.067-7.218,1.214c-4.006,0.148-7.269-0.156-7.288-0.679
						c-0.019-0.523,3.212-1.066,7.218-1.214C413.44,306.37,416.703,306.674,416.722,307.197z"/>
				</g>
				<g>
					<polygon style="fill:#54D3F0;" points="444.62,317.548 437.597,313.721 423.152,354.934 					"/>
					
						<rect x="428.555" y="314.321" transform="matrix(0.8781 0.4785 -0.4785 0.8781 219.0976 -166.2453)" style="fill:#76E4FD;" width="14.516" height="65.092"/>
					<path style="fill:#54D3F0;" d="M457.759,321.762c-0.25,0.459-3.307-0.723-6.826-2.641c-3.52-1.918-6.17-3.845-5.92-4.305
						c0.25-0.459,3.307,0.723,6.827,2.641C455.359,319.375,458.01,321.302,457.759,321.762z"/>
				</g>
				<g>
					<rect x="380.883" y="343.942" style="fill:#FEBE7E;" width="69.359" height="52.369"/>
					<rect x="380.883" y="343.942" style="fill:#EBA967;" width="19.226" height="52.369"/>
					<rect x="383.106" y="348.468" style="fill:#C48D56;" width="13.189" height="1.895"/>
					<rect x="430.597" y="385.817" style="fill:#C48D56;" width="16.227" height="3.248"/>
					<rect x="434.411" y="389.876" style="fill:#C48D56;" width="12.414" height="1.624"/>
				</g>
			</g>
			
				<line style="fill:none;stroke:#173845;stroke-width:1.1351;stroke-linecap:round;stroke-linejoin:round;stroke-miterlimit:10;" x1="450.242" y1="396.311" x2="359.913" y2="396.311"/>
		</g>
		<g>
			<path style="fill:#FFFFFF;" d="M138.188,156.186c3.423-4.805,3.423-9.61,0-14.415h-4.593c-0.394-1.048-0.862-2.06-1.399-3.029
				l2.846-2.846c-0.977-5.818-4.375-9.216-10.193-10.193l-3.25,3.25c-1.006-0.457-2.051-0.844-3.129-1.154v-4.027
				c-4.805-3.423-9.61-3.423-14.415,0v4.593c-1.049,0.394-2.06,0.862-3.029,1.399l-2.846-2.847
				c-5.818,0.978-9.216,4.375-10.193,10.193l3.25,3.25c-0.457,1.006-0.844,2.051-1.154,3.129h-4.027
				c-3.423,4.805-3.423,9.61,0,14.415h4.593c0.394,1.048,0.862,2.06,1.399,3.029l-2.846,2.846
				c0.978,5.818,4.375,9.216,10.193,10.193l3.25-3.25c1.006,0.457,2.051,0.844,3.129,1.154v4.027c4.805,3.423,9.61,3.423,14.416,0
				v-4.593c1.048-0.394,2.06-0.862,3.029-1.399l2.847,2.847c5.818-0.977,9.216-4.375,10.193-10.193l-3.25-3.25
				c0.457-1.006,0.844-2.051,1.154-3.129H138.188z M113.535,163.619c-8.761,0.868-16.064-6.435-15.196-15.196
				c0.642-6.483,5.886-11.727,12.369-12.369c8.761-0.868,16.064,6.435,15.196,15.196
				C125.262,157.733,120.018,162.977,113.535,163.619z"/>
			<path style="fill:#FFFFFF;" d="M191.104,186.95c2.286-3.21,2.286-6.42,0-9.63h-3.068c-0.263-0.7-0.576-1.376-0.935-2.023
				l1.902-1.902c-0.653-3.887-2.923-6.156-6.809-6.809l-2.171,2.171c-0.672-0.305-1.37-0.564-2.09-0.771v-2.69
				c-3.21-2.286-6.42-2.286-9.63,0v3.068c-0.7,0.263-1.376,0.576-2.024,0.935l-1.901-1.902c-3.887,0.653-6.156,2.923-6.809,6.809
				l2.171,2.171c-0.306,0.672-0.564,1.37-0.771,2.09h-2.69c-2.286,3.21-2.286,6.42,0,9.63h3.068c0.263,0.7,0.576,1.376,0.935,2.024
				l-1.902,1.902c0.653,3.886,2.923,6.156,6.809,6.809l2.171-2.171c0.672,0.306,1.37,0.564,2.09,0.771v2.69
				c3.21,2.286,6.42,2.286,9.63,0v-3.068c0.7-0.263,1.376-0.576,2.023-0.935l1.902,1.902c3.887-0.653,6.156-2.923,6.809-6.809
				l-2.171-2.171c0.305-0.672,0.564-1.37,0.771-2.09H191.104z M174.636,191.916c-5.853,0.58-10.731-4.298-10.151-10.151
				c0.429-4.331,3.932-7.834,8.263-8.263c5.853-0.58,10.731,4.298,10.151,10.151C182.47,187.984,178.967,191.487,174.636,191.916z"
				/>
			<path style="fill:#FFFFFF;" d="M383.835,217.198c2.093-2.938,2.093-5.877,0-8.815h-2.809c-0.241-0.641-0.527-1.26-0.856-1.853
				l1.741-1.741c-0.598-3.558-2.676-5.636-6.233-6.234l-1.988,1.988c-0.615-0.28-1.254-0.516-1.913-0.706v-2.463
				c-2.939-2.093-5.877-2.093-8.815,0v2.809c-0.641,0.241-1.26,0.527-1.853,0.856l-1.741-1.741
				c-3.558,0.598-5.636,2.676-6.233,6.234l1.987,1.988c-0.28,0.615-0.516,1.254-0.706,1.913h-2.463
				c-2.093,2.939-2.093,5.877,0,8.816h2.809c0.241,0.641,0.527,1.26,0.856,1.852l-1.741,1.741c0.598,3.558,2.676,5.636,6.233,6.234
				l1.988-1.988c0.615,0.28,1.254,0.516,1.913,0.706v2.463c2.939,2.093,5.877,2.093,8.815,0v-2.809
				c0.641-0.241,1.26-0.527,1.853-0.856l1.741,1.741c3.558-0.598,5.636-2.676,6.233-6.233l-1.988-1.988
				c0.28-0.615,0.516-1.254,0.706-1.913H383.835z M368.759,221.744c-5.358,0.531-9.824-3.935-9.293-9.293
				c0.393-3.965,3.6-7.172,7.564-7.564c5.358-0.531,9.823,3.935,9.293,9.293C375.931,218.145,372.724,221.352,368.759,221.744z"/>
			<g>
				<circle style="fill:none;stroke:#FFFFFF;stroke-width:1.1351;stroke-miterlimit:10;" cx="72.904" cy="173.47" r="4.295"/>
				<circle style="fill:none;stroke:#FFFFFF;stroke-width:1.1351;stroke-miterlimit:10;" cx="409.28" cy="246.355" r="4.295"/>
				<path style="fill:none;stroke:#FFFFFF;stroke-width:1.1351;stroke-miterlimit:10;" d="M234.069,88.7
					c0,2.372-1.923,4.295-4.295,4.295c-2.372,0-4.295-1.923-4.295-4.295s1.923-4.295,4.295-4.295
					C232.146,84.405,234.069,86.328,234.069,88.7z"/>
				<path style="fill:none;stroke:#FFFFFF;stroke-width:1.1351;stroke-miterlimit:10;" d="M234.069,185.552
					c0,2.372-1.923,4.295-4.295,4.295c-2.372,0-4.295-1.923-4.295-4.295s1.923-4.295,4.295-4.295
					C232.146,181.256,234.069,183.18,234.069,185.552z"/>
			</g>
			<g>
				
					<line style="fill:none;stroke:#FFFFFF;stroke-width:1.1351;stroke-linecap:round;stroke-linejoin:round;stroke-miterlimit:10;" x1="405.077" y1="279.474" x2="405.077" y2="287.627"/>
				
					<line style="fill:none;stroke:#FFFFFF;stroke-width:1.1351;stroke-linecap:round;stroke-linejoin:round;stroke-miterlimit:10;" x1="409.154" y1="283.551" x2="401.001" y2="283.551"/>
			</g>
			<g>
				
					<line style="fill:none;stroke:#FFFFFF;stroke-width:1.1351;stroke-linecap:round;stroke-linejoin:round;stroke-miterlimit:10;" x1="298.792" y1="158.505" x2="298.792" y2="166.658"/>
				
					<line style="fill:none;stroke:#FFFFFF;stroke-width:1.1351;stroke-linecap:round;stroke-linejoin:round;stroke-miterlimit:10;" x1="302.869" y1="162.581" x2="294.716" y2="162.581"/>
			</g>
			<g>
				
					<line style="fill:none;stroke:#FFFFFF;stroke-width:1.1351;stroke-linecap:round;stroke-linejoin:round;stroke-miterlimit:10;" x1="155.742" y1="96.853" x2="155.742" y2="105.006"/>
				
					<line style="fill:none;stroke:#FFFFFF;stroke-width:1.1351;stroke-linecap:round;stroke-linejoin:round;stroke-miterlimit:10;" x1="159.818" y1="100.93" x2="151.665" y2="100.93"/>
			</g>
			<g>
				<path style="fill:#FFFFFF;" d="M254.559,154.372h-67.495c-2.316,0-4.194-1.878-4.194-4.194v-33.006
					c0-2.316,1.878-4.194,4.194-4.194h67.495c2.316,0,4.194,1.878,4.194,4.194v33.006
					C258.753,152.494,256.875,154.372,254.559,154.372z"/>
				<g>
					<g>
						<path style="fill:#E381C7;" d="M205.3,125.521h-16.058c-0.515,0-0.933-0.418-0.933-0.933v-6.81
							c0-0.515,0.418-0.933,0.933-0.933H205.3c0.515,0,0.933,0.418,0.933,0.933v6.81C206.233,125.104,205.816,125.521,205.3,125.521
							z"/>
						<path style="fill:#ED99D5;" d="M205.3,138.013h-16.058c-0.515,0-0.933-0.418-0.933-0.933v-6.81
							c0-0.515,0.418-0.933,0.933-0.933H205.3c0.515,0,0.933,0.418,0.933,0.933v6.81C206.233,137.595,205.816,138.013,205.3,138.013
							z"/>
						<path style="fill:#EDBEDF;" d="M205.3,150.505h-16.058c-0.515,0-0.933-0.418-0.933-0.933v-6.81
							c0-0.515,0.418-0.933,0.933-0.933H205.3c0.515,0,0.933,0.418,0.933,0.933v6.81C206.233,150.087,205.816,150.505,205.3,150.505
							z"/>
					</g>
					<g>
						<path style="fill:#54D3F0;" d="M228.84,125.521h-16.058c-0.515,0-0.933-0.418-0.933-0.933v-6.81
							c0-0.515,0.418-0.933,0.933-0.933h16.058c0.515,0,0.933,0.418,0.933,0.933v6.81
							C229.774,125.104,229.356,125.521,228.84,125.521z"/>
						<path style="fill:#76E4FD;" d="M228.84,138.013h-16.058c-0.515,0-0.933-0.418-0.933-0.933v-6.81
							c0-0.515,0.418-0.933,0.933-0.933h16.058c0.515,0,0.933,0.418,0.933,0.933v6.81
							C229.774,137.595,229.356,138.013,228.84,138.013z"/>
						<path style="fill:#C6EDFB;" d="M228.84,150.505h-16.058c-0.515,0-0.933-0.418-0.933-0.933v-6.81
							c0-0.515,0.418-0.933,0.933-0.933h16.058c0.515,0,0.933,0.418,0.933,0.933v6.81
							C229.774,150.087,229.356,150.505,228.84,150.505z"/>
					</g>
					<g>
						<path style="fill:#FAD505;" d="M252.38,125.521h-16.058c-0.516,0-0.933-0.418-0.933-0.933v-6.81
							c0-0.515,0.418-0.933,0.933-0.933h16.058c0.515,0,0.933,0.418,0.933,0.933v6.81
							C253.314,125.104,252.896,125.521,252.38,125.521z"/>
						<path style="fill:#FAF105;" d="M252.38,138.013h-16.058c-0.516,0-0.933-0.418-0.933-0.933v-6.81
							c0-0.515,0.418-0.933,0.933-0.933h16.058c0.515,0,0.933,0.418,0.933,0.933v6.81
							C253.314,137.595,252.896,138.013,252.38,138.013z"/>
						<path style="fill:#FAF8CD;" d="M252.38,150.505h-16.058c-0.516,0-0.933-0.418-0.933-0.933v-6.81
							c0-0.515,0.418-0.933,0.933-0.933h16.058c0.515,0,0.933,0.418,0.933,0.933v6.81
							C253.314,150.087,252.896,150.505,252.38,150.505z"/>
					</g>
				</g>
			</g>
		</g>
		<g>
			<g>
				<path style="fill:#FEBE7E;" d="M93.929,259.147l-0.329,0.098l-0.39-17.309c-4.096,0.225-8.184,0.58-12.271,0.947
					c0.053,6.049,0.168,12.156,1.08,18.14c0.358,2.348,0.368,5.213,1.845,7.202c2.071,2.789,6.999,1.738,9.835,0.931
					c0.055-0.016,0.108-0.036,0.163-0.052C93.77,265.888,93.6,262.491,93.929,259.147z"/>
				<path style="fill:#173845;" d="M127.012,211.36c0,0,2.287-3.248,2.287-6.748c0-3.5-2.991-6.304-2.991-6.304
					s2.287-5.855,0-17.466c-2.287-11.612-11.627-9.852-11.627-9.852s-0.134-0.084-0.373-0.214c-0.653,2.738-0.928,5.475-1.588,8.213
					l4.087,47.772c9.75,2.567,12.491,0,12.491,0C132.466,217.788,127.012,211.36,127.012,211.36z"/>
				<path style="fill:#60A5BF;" d="M147.96,435.162l-16.164-9.831h-9.957l-0.328,8.224c-0.024,0.609,0.189,1.171,0.55,1.607H147.96z
					"/>
				<path style="fill:#60A5BF;" d="M116.644,435.162l-16.164-9.831h-9.957l-0.328,8.224c-0.024,0.609,0.189,1.171,0.55,1.607
					H116.644z"/>
				<path style="fill:#EBA967;" d="M99.397,216.641c0.461-0.29,1.539-1.054,2.505-2.357c1.305-1.761,2.399-4.505,1.464-8.398
					c0,0,10.98-3.082,16.247,0.342c0,0-2.638,7.126,2.102,10.023c-1.153,11.712-3.599,19.628-3.599,19.628l-18.927-19.081
					C99.259,216.746,99.329,216.693,99.397,216.641z"/>
				<path style="fill:#C48D56;" d="M103.575,210.263c0,0,7.894,3.6,15.562-2.249l0.656-2.524c0,0-8.168,6.403-16.426,0.395
					C103.366,205.886,103.872,208.936,103.575,210.263z"/>
				<path style="fill:#173845;" d="M134.997,379.799c-1.252,4.48-2.464,30.569-3.07,45.532h-9.759
					c-0.016-0.072-0.031-0.135-0.043-0.176c-1.301-4.573-3.679-8.772-4.746-13.422c-1.744-7.602-2.509-15.931-0.451-23.544
					c1.269-4.697,3.57-9.281,3.039-14.281c-0.497-4.681-3.875-24.744-4.535-29.42c-2.169-15.36-1.558-24.935-2.859-45.735
					c1.462,22.477-10.745,76.354-10.745,76.354l-1.323,50.224h-9.981c-2.822-10.131-6.979-20.644-6.942-31.162
					c0.015-4.265,0.522-8.057,1.907-12.054c1.217-3.512,2.197-7.563,1.458-11.39C71.55,290.932,97.11,267.274,97.11,267.274h31.62
					c20.211,34.113,8.533,92.055,7.921,96.677C136.038,368.573,134.997,379.799,134.997,379.799z"/>
				<path style="fill:#FDC49F;" d="M99.168,216.777c0,0,0.086-0.046,0.229-0.137c-0.069,0.053-0.139,0.105-0.209,0.158
					L99.168,216.777z"/>
				<path style="fill:#FAF105;" d="M79.298,244.078l0.544-5.917c-0.001-3.945,1.569-8.691,2.731-11.658
					c0.704-1.798,2.107-3.226,3.894-3.956l10.934-4.468c0.698-0.498,1.262-0.887,1.787-1.28l5.668,5.714
					c5.859,5.907,15.985,2.367,16.823-5.911c0.012-0.116,0.023-0.233,0.035-0.35l9.849,2.276c1.94,0.449,3.6,1.698,4.567,3.439
					l7.44,11.277l-9.423,5.945c4.89,10.044-0.685,18.909-2.491,21.37c-0.347,0.472-0.526,1.039-0.526,1.625v5.316
					c-14.155,8.818-35.504,0-35.504,0c2.81-8.43,0.185-22.892-0.188-24.837v3.102L79.298,244.078z"/>
				<g>
					<path style="fill:#173845;" d="M94.455,235.872c0.476,1.131,0.769,2.329,0.982,3.537c0.083,0.608,0.154,1.22,0.165,1.835
						c0.007,0.615-0.04,1.232-0.164,1.832c0.042-1.223-0.062-2.429-0.262-3.626c-0.086-0.601-0.208-1.195-0.328-1.792
						C94.723,237.064,94.598,236.467,94.455,235.872z"/>
				</g>
				
					<ellipse transform="matrix(0.9966 -0.0821 0.0821 0.9966 -15.3488 9.7811)" style="fill:#FEBE7E;" cx="111.286" cy="191.567" rx="13.639" ry="18.29"/>
				<g>
					<g>
						<g>
							<g>
								<g>
									<g>
										<path style="fill:#173845;" d="M104.995,188.501c0.428,0.464,1.011,0.508,1.406,0.471
											c0.168-0.272,0.397-0.445,0.659-0.459c0.568-0.03,1.069,0.696,1.118,1.622c0.049,0.926-0.371,1.701-0.94,1.731
											c-0.568,0.03-1.069-0.696-1.118-1.622c-0.01-0.181-0.001-0.355,0.023-0.52
											C105.383,189.471,104.995,188.501,104.995,188.501z"/>
										<path style="fill:#173845;" d="M104.418,185.704c0.261-0.256,0.613-0.397,0.979-0.392
											c0.679,0.009,1.358,0.018,2.037,0.027c0.51,0.007,1.02-0.044,1.53-0.033c0.641,0.014,1.016,0.021,0.965,0.785
											c-0.011,0.161-0.042,0.444-0.147,0.574c-0.272,0.333-1.818-0.032-2.225-0.069c-0.578-0.053-1.157-0.105-1.735-0.158
											c-0.345-0.032-0.693,0.025-1.011,0.165l-2.383,1.049L104.418,185.704z"/>
									</g>
								</g>
							</g>
							<g>
								<g>
									<g>
										<path style="fill:#173845;" d="M121.011,187.678c-0.377,0.506-0.951,0.612-1.348,0.617
											c-0.195-0.252-0.442-0.4-0.704-0.386c-0.568,0.03-0.989,0.805-0.94,1.731s0.55,1.652,1.118,1.622
											c0.568-0.03,0.989-0.805,0.94-1.731c-0.01-0.181-0.037-0.353-0.078-0.515
											C120.729,188.684,121.011,187.678,121.011,187.678z"/>
										<path style="fill:#173845;" d="M121.29,184.836c-0.287-0.227-0.652-0.329-1.015-0.286
											c-0.674,0.081-1.348,0.162-2.023,0.243c-0.507,0.061-1.019,0.064-1.525,0.129c-0.636,0.082-1.008,0.128-0.877,0.883
											c0.028,0.159,0.089,0.438,0.207,0.555c0.305,0.302,1.805-0.224,2.205-0.304c0.57-0.114,1.139-0.227,1.709-0.341
											c0.34-0.068,0.692-0.048,1.023,0.057l2.481,0.791L121.29,184.836z"/>
									</g>
								</g>
							</g>
						</g>
						<path style="fill:#FDFDFD;" d="M109.981,202.442c4.027,4.641,7.539-0.4,7.539-0.4L109.981,202.442z"/>
					</g>
					
						<polyline style="fill:none;stroke:#C48D56;stroke-width:0.2932;stroke-linecap:round;stroke-linejoin:round;stroke-miterlimit:10;" points="
						113.416,190.472 114.681,198.753 112.669,198.86 					"/>
				</g>
				<path style="fill:#173845;" d="M123.088,183.128c-4.327,0.344-11.507-3.914-11.507-3.914c-2.412,1.929-8.021,6.96-9.151,12.651
					c-1.378,6.904,5.14,19.955,0.785,33.448c-0.427,1.323-1.626,2.233-3.004,2.302c-3.928,0.207-11.935,0.207-15.077-2.646
					c-4.217-3.831,1.943-9.826,1.943-9.826s-4.396-9.137-1.061-14.953c3.349-5.802,5.278-5.526,5.278-5.526
					s-2.453-11.011,5.458-20.507c7.015-8.421,15.683-4.396,17.558-3.376C122.426,175.659,123.088,183.128,123.088,183.128z"/>
				<g>
					<path style="fill:#173845;" d="M134.147,239.188c-0.369-0.949-0.64-1.924-0.919-2.897c-0.249-0.981-0.507-1.96-0.665-2.966
						c0.37,0.949,0.64,1.924,0.919,2.897C133.732,237.203,133.988,238.182,134.147,239.188z"/>
				</g>
				<g>
					<g>
						<path style="fill:none;stroke:#60A5BF;stroke-width:0.2708;stroke-linecap:round;stroke-linejoin:round;" d="M98.79,271.418
							c0,0-0.204,0.314-0.557,0.924"/>
						
							<path style="fill:none;stroke:#60A5BF;stroke-width:0.2708;stroke-linecap:round;stroke-linejoin:round;stroke-dasharray:2.1638,2.1638;" d="
							M97.197,274.236c-3.171,6.084-9.954,21.688-9.762,43.571c0.249,28.532,3.716,38.698,4.011,47.258
							c0.295,8.56-4.26,23.309-4.011,32.527c0.189,6.981,2.392,16.278,3.45,20.379"/>
						<path style="fill:none;stroke:#60A5BF;stroke-width:0.2708;stroke-linecap:round;stroke-linejoin:round;" d="M91.161,419.024
							c0.178,0.666,0.284,1.041,0.284,1.041"/>
					</g>
				</g>
				<g>
					<polygon style="fill:#E381C7;" points="145.974,219.331 140.062,214.504 119.253,250.607 					"/>
					
						<rect x="125.623" y="214.219" transform="matrix(0.7746 0.6324 -0.6324 0.7746 184.9944 -28.5469)" style="fill:#ED99D5;" width="13.851" height="62.11"/>
					<path style="fill:#E381C7;" d="M157.553,225.598c-0.316,0.387-2.974-1.261-5.936-3.68c-2.963-2.419-5.109-4.693-4.793-5.08
						c0.316-0.387,2.973,1.261,5.936,3.68C155.723,222.937,157.869,225.211,157.553,225.598z"/>
				</g>
				<g>
					<polygon style="fill:#54D3F0;" points="165.717,233.164 162.275,226.352 128.596,250.891 					"/>
					
						<rect x="135.986" y="220.362" transform="matrix(0.451 0.8925 -0.8925 0.451 302.8602 10.4798)" style="fill:#76E4FD;" width="13.851" height="62.109"/>
					<path style="fill:#54D3F0;" d="M173.752,243.593c-0.445,0.225-2.205-2.36-3.93-5.774c-1.725-3.414-2.762-6.364-2.317-6.589
						c0.446-0.225,2.205,2.36,3.93,5.774C173.161,240.418,174.198,243.368,173.752,243.593z"/>
				</g>
				<path style="fill:#FEBE7E;" d="M130.275,252.603c1.152-0.339,6.998-2.103,6.894-2.969c-0.116-0.96-1.107-0.485-1.107-0.485
					s-5.869,1.727-5.897,1.187c-0.033-0.656,1.304-1.087,1.758-1.339c0.652-0.361,5.667-2.893,4.982-3.817
					c-0.485-0.653-2.664,0.434-3.175,0.646c-1.56,0.65-2.979,1.729-4.664,2.013c-0.102,0.017-0.176-0.091-0.125-0.181
					c0.709-1.24,5.556-4.354,5.265-5.384c-0.31-1.096-1.378-0.246-1.378-0.246s-7.415,5.377-8.735,5.611
					c-1.32,0.234-0.98-1.923-0.721-2.957c0.26-1.033,0.645-3.355-0.269-3.554c-0.829-0.181-1.274,1.518-1.4,2.059
					c-0.269,1.159-0.456,2.575-0.86,3.522c-1.239,2.906-3.192,5.353-3.192,5.353l0,0l-23.721,7.084
					c-0.329,3.344-0.16,6.74-0.068,9.957c3.034-0.879,5.984-2.18,8.829-3.533c1.581-0.752,19.008-8.858,19.136-8.692l-0.011-0.021
					l0.15-0.039c1.784,0.113,6.003-1.321,6.693-1.648c0.691-0.327,4.092,0.004,5.47,0.25c1.378,0.246,1.622-0.532,1.622-0.532
					c-0.265-0.961-2.767-1.437-4.49-1.52c-0.561-0.027-0.882-0.112-1.06-0.214C129.971,253.025,130.021,252.677,130.275,252.603z"/>
			</g>
			
				<line style="fill:none;stroke:#173845;stroke-width:1.1351;stroke-linecap:round;stroke-linejoin:round;stroke-miterlimit:10;" x1="67.396" y1="435.086" x2="159.742" y2="435.086"/>
		</g>
	</g>
</g>
</svg>
